<svg width="375" height="410" viewBox="0 0 375 410" fill="none" xmlns="http://www.w3.org/2000/svg">
<path d="M243.702 895.367C243.702 857.78 242.8 821.346 237.073 784.094C235.364 772.983 237.622 760.489 232.154 750.114C227.785 741.825 219.669 733.808 212.799 727.291C200.29 715.425 190.379 705.229 176.336 695.238C148.88 675.705 118.22 660.653 90.577 641.174C77.0216 631.622 61.4876 623.16 49.3016 612.063C40.435 603.988 33.299 594.69 22.5688 588.631C11.8839 582.598 0.260959 578.489 -9.51056 570.982C-26.312 558.075 -44.0708 536.935 -54.5286 518.845C-61.6386 506.546 -65.8525 491.007 -66.1841 476.851C-66.6765 455.832 -53.2678 435.561 -45.0117 416.6C-25.6127 372.048 31.452 357.05 73.2541 337.684C100.253 325.177 129.114 319.534 158.051 314.76C166.399 313.383 173.374 309.38 181.148 306.544C190.391 303.172 201.688 301.804 211.409 300.154C232.597 296.557 258.951 296.573 278.348 287.373C301.809 276.246 315.012 259.784 326.895 238.076C342.339 209.861 350.043 179.847 347.533 147.699C346.439 133.698 343.79 119.784 343.79 105.705C342.991 88.1118 342.621 49.1434 347.533 34.0181C352.444 18.8927 367.327 5.65823 374.154 0.931641" stroke="white" stroke-width="1.76768" stroke-dasharray="3.54 3.54"/>
</svg>
