<?xml version="1.0" standalone="no"?>
<!DOCTYPE svg PUBLIC "-//W3C//DTD SVG 20010904//EN"
 "http://www.w3.org/TR/2001/REC-SVG-20010904/DTD/svg10.dtd">
<svg version="1.0" xmlns="http://www.w3.org/2000/svg"
 width="616.000000pt" height="204.000000pt" viewBox="0 0 616.000000 204.000000"
 preserveAspectRatio="xMidYMid meet">

<g transform="translate(0.000000,204.000000) scale(0.100000,-0.100000)"
fill="#000000" stroke="none">
<path d="M4615 1899 c-9 -14 -11 -14 80 -36 57 -14 79 -24 77 -34 -2 -8 -4
-18 -5 -23 -1 -5 32 -15 74 -21 110 -18 217 -71 192 -96 -9 -9 -28 -5 -75 15
-177 73 -378 75 -498 3 -59 -35 -121 -90 -162 -140 -21 -27 -38 -52 -38 -55 0
-4 62 -8 138 -8 127 -1 148 -4 295 -42 238 -63 317 -56 380 35 17 23 31 42 32
40 25 -33 165 -268 165 -277 0 -7 -18 -30 -41 -52 -23 -22 -52 -64 -66 -95
-22 -47 -24 -65 -21 -136 2 -51 10 -96 21 -118 108 -221 419 -239 543 -31 97
162 38 360 -134 443 -39 19 -64 23 -146 24 l-100 0 -102 220 c-57 121 -105
225 -107 230 -3 7 -11 6 -23 -1 -15 -9 -26 -5 -60 22 -24 17 -65 38 -93 45
-37 9 -51 18 -51 31 0 26 -24 35 -130 47 -52 7 -105 14 -117 16 -12 3 -25 0
-28 -6z m517 -311 c21 -40 67 -129 103 -198 37 -69 62 -120 57 -115 -6 6 -38
62 -72 125 -34 63 -80 148 -102 188 -22 39 -36 72 -31 72 5 0 25 -33 45 -72z
m447 -415 c30 -19 57 -48 79 -83 27 -46 32 -64 32 -117 0 -182 -173 -295 -335
-219 -159 73 -187 281 -53 389 43 35 54 30 83 -33 18 -39 18 -40 -5 -83 -27
-50 -23 -85 15 -123 50 -50 143 -21 161 50 13 54 -33 116 -87 116 -31 0 -51
21 -73 74 -21 50 -20 54 7 60 51 11 130 -3 176 -31z m-79 -163 c11 -11 20 -27
20 -35 0 -22 -37 -55 -60 -55 -29 0 -45 45 -29 82 14 33 41 36 69 8z"/>
<path d="M5183 1739 c-32 -33 5 -124 67 -165 21 -14 43 -24 49 -22 16 6 121
128 121 142 0 7 -9 21 -21 32 -17 15 -40 20 -113 22 -64 3 -95 0 -103 -9z"/>
<path d="M1543 1698 c-7 -24 -29 -63 -49 -87 -35 -40 -36 -43 -13 -36 13 3 37
16 52 26 l28 20 58 -53 c114 -106 284 -189 468 -228 126 -27 161 -23 73 8
-120 43 -343 160 -433 228 -49 37 -105 88 -125 115 -20 27 -39 49 -42 49 -3 0
-11 -19 -17 -42z"/>
<path d="M1217 1636 c-52 -78 -211 -189 -431 -297 -87 -44 -153 -79 -147 -79
25 0 211 75 305 123 54 27 147 83 205 122 l107 72 30 -23 c16 -13 49 -31 74
-39 l45 -15 -85 80 c-47 44 -85 80 -86 80 -1 0 -9 -11 -17 -24z"/>
<path d="M1185 1474 c-108 -92 -322 -211 -450 -250 -79 -23 -89 -34 -34 -34
24 0 73 -5 108 -10 64 -9 66 -8 125 27 65 38 239 207 269 261 22 38 21 39 -18
6z"/>
<path d="M1220 1429 c-28 -39 -50 -72 -48 -74 6 -5 168 90 165 98 -1 4 -16 17
-34 28 l-31 20 -52 -72z"/>
<path d="M1280 1350 c-124 -82 -220 -150 -213 -150 6 0 104 47 216 105 113 58
210 105 216 105 5 0 111 -47 235 -105 124 -58 229 -105 232 -105 7 0 -435 290
-451 296 -5 2 -111 -63 -235 -146z"/>
<path d="M3010 1324 c74 -32 260 -83 378 -103 228 -39 371 -44 665 -27 444 27
657 18 820 -34 63 -20 87 -24 87 -15 0 10 16 9 71 -5 l71 -19 -22 24 c-25 27
-118 78 -182 101 -62 22 -404 74 -528 81 -65 3 -215 -3 -395 -16 -442 -33
-613 -33 -735 1 -74 20 -92 22 -70 8 23 -15 -13 -13 -107 5 -95 18 -97 18 -53
-1z"/>
<path d="M617 1084 c-4 -4 -7 -83 -7 -176 l0 -168 50 0 50 0 0 40 0 40 145 0
145 0 0 -40 0 -40 45 0 45 0 0 175 0 175 -45 0 -45 0 0 -85 0 -85 -145 0 -144
0 -3 83 -3 82 -40 3 c-23 2 -44 0 -48 -4z"/>
<path d="M1338 1080 c-78 -23 -121 -84 -121 -172 0 -47 5 -63 27 -93 53 -69
72 -75 245 -75 146 0 156 1 197 25 75 44 103 138 65 220 -39 85 -88 104 -261
104 -69 -1 -137 -4 -152 -9z m312 -110 c28 -28 27 -90 -1 -116 -18 -16 -40
-19 -153 -22 -122 -3 -133 -2 -159 18 -34 27 -38 89 -7 120 18 18 33 20 160
20 127 0 142 -2 160 -20z"/>
<path d="M1897 1083 c-4 -3 -7 -82 -7 -175 l0 -168 50 0 50 0 0 105 0 106 155
-106 c125 -85 161 -105 190 -105 l35 0 -2 173 -3 172 -42 3 -43 3 0 -106 c0
-85 -3 -106 -13 -102 -8 3 -82 50 -165 106 -138 92 -186 114 -205 94z"/>
<path d="M2605 1075 c-81 -29 -128 -119 -106 -203 14 -56 37 -85 82 -111 33
-19 53 -21 213 -21 l176 0 0 110 0 110 -90 0 -90 0 0 -44 0 -45 42 -3 c31 -2
44 -8 46 -20 3 -16 -8 -18 -116 -18 -106 0 -122 2 -146 21 -33 26 -37 88 -6
119 18 18 33 20 190 20 l170 0 0 50 0 50 -162 0 c-114 -1 -175 -5 -203 -15z"/>
<path d="M3150 915 l0 -175 45 0 45 0 0 40 0 40 145 0 145 0 0 -40 0 -40 45 0
45 0 0 175 0 175 -45 0 -45 0 0 -85 0 -85 -145 0 -145 0 0 85 0 85 -45 0 -45
0 0 -175z"/>
<path d="M3915 1081 c-56 -14 -105 -43 -128 -75 -19 -27 -22 -46 -26 -148 l-3
-118 51 0 51 0 0 40 0 40 145 0 145 0 0 -40 0 -40 45 0 45 0 0 120 c0 118 0
120 -30 154 -17 18 -49 42 -73 51 -47 19 -176 28 -222 16z m195 -109 c19 -9
36 -25 38 -34 3 -17 -9 -18 -142 -18 -116 0 -146 3 -146 13 0 15 26 41 50 50
37 13 166 7 200 -11z"/>
<path d="M4467 1076 c-50 -18 -76 -42 -98 -91 -38 -82 -10 -176 65 -220 40
-24 51 -25 189 -25 80 0 158 5 174 11 65 25 106 88 106 165 0 63 -28 113 -81
146 -33 21 -51 23 -177 26 -101 1 -151 -2 -178 -12z m323 -106 c28 -28 27 -90
-1 -116 -18 -16 -40 -20 -141 -22 -130 -4 -158 0 -182 24 -23 23 -21 89 4 114
18 18 33 20 160 20 127 0 142 -2 160 -20z"/>
<path d="M664 629 c-48 -24 -54 -54 -54 -258 l0 -191 29 -32 29 -33 1342 0
1342 0 29 33 29 32 0 190 c0 125 -4 198 -12 215 -26 58 48 55 -1390 54 -868 0
-1330 -4 -1344 -10z m146 -169 l0 -61 88 3 87 3 3 58 c3 56 4 57 32 57 l30 0
0 -145 0 -145 -29 0 c-29 0 -30 2 -33 53 l-3 52 -87 3 -88 3 0 -56 0 -55 -35
0 -35 0 0 145 0 145 35 0 35 0 0 -60z m685 46 c46 -20 55 -42 55 -141 0 -80
-2 -88 -26 -110 -26 -24 -33 -25 -150 -25 -115 0 -125 1 -151 24 -27 23 -28
28 -28 114 0 81 2 93 24 116 28 30 41 33 154 35 56 1 100 -4 122 -13z m525
-21 l0 -34 -132 -3 c-125 -3 -133 -4 -133 -23 0 -19 8 -20 117 -23 113 -3 118
-4 138 -29 28 -36 26 -88 -5 -118 -23 -24 -29 -25 -165 -25 l-140 0 0 30 0 30
129 0 c95 0 131 3 134 13 11 32 -5 37 -115 37 -102 0 -110 1 -133 25 -46 45
-27 125 35 148 8 3 72 6 143 6 l127 1 0 -35z m460 0 l0 -35 -65 0 -65 0 0
-110 0 -110 -30 0 -30 0 0 110 0 110 -65 0 -65 0 0 35 0 35 160 0 160 0 0 -35z
m448 -2 l3 -33 -126 0 c-125 0 -126 0 -123 -22 3 -22 7 -23 116 -26 l112 -3 0
-29 0 -29 -112 -3 c-105 -3 -113 -4 -113 -23 0 -19 8 -20 123 -23 l122 -3 0
-29 0 -30 -155 0 -155 0 0 145 0 146 153 -3 152 -3 3 -32z m210 -80 l3 -113
94 0 95 0 0 -30 0 -30 -130 0 -130 0 0 146 0 145 33 -3 32 -3 3 -112z m-2278
41 c0 -9 -5 -14 -12 -12 -18 6 -21 28 -4 28 9 0 16 -7 16 -16z m100 1 c0 -11
-11 -15 -40 -15 -29 0 -40 4 -40 15 0 11 11 15 40 15 29 0 40 -4 40 -15z
m-100 -190 c0 -8 -7 -15 -15 -15 -16 0 -20 12 -8 23 11 12 23 8 23 -8z m100
-5 c0 -5 -18 -10 -40 -10 -22 0 -40 5 -40 10 0 6 18 10 40 10 22 0 40 -4 40
-10z"/>
<path d="M1264 437 c-3 -8 -4 -43 -2 -78 l3 -64 99 -3 c123 -3 128 0 124 87
l-3 66 -108 3 c-84 2 -109 0 -113 -11z"/>
</g>
</svg>
