<svg width="16" height="16" viewBox="0 0 16 16" fill="none" xmlns="http://www.w3.org/2000/svg">
<path opacity="0.4" d="M11.268 14.6666H4.73464C3.60131 14.6666 2.66797 13.7399 2.66797 12.5999V3.39992C2.66797 2.26659 3.59464 1.33325 4.73464 1.33325H11.268C12.4013 1.33325 13.3346 2.25992 13.3346 3.39992V12.5999C13.3346 13.7399 12.408 14.6666 11.268 14.6666Z" fill="white"/>
<path d="M13.3346 5.33325H2.66797V8.66659H13.3346V5.33325Z" fill="white"/>
<path d="M5.33333 12.5C5.28 12.5 5.22666 12.4933 5.17333 12.4866C5.12 12.4733 5.06667 12.46 5.01334 12.4333C4.96667 12.4133 4.91333 12.3866 4.87333 12.36C4.82666 12.3266 4.78 12.2933 4.74666 12.2533C4.58666 12.1 4.5 11.8866 4.5 11.6666C4.5 11.4466 4.58666 11.2333 4.74666 11.08C4.78 11.04 4.82666 11.0066 4.87333 10.9733C4.91333 10.9466 4.96667 10.92 5.01334 10.9C5.06667 10.8733 5.12 10.86 5.17333 10.8466C5.44 10.7933 5.72667 10.8866 5.92 11.08C6.08 11.2333 6.16667 11.4466 6.16667 11.6666C6.16667 11.8866 6.08 12.1 5.92 12.2533C5.76667 12.4133 5.55333 12.5 5.33333 12.5Z" fill="white"/>
<path d="M10.6654 12.4999C10.612 12.4999 10.5587 12.4932 10.5054 12.4866C10.452 12.4732 10.3987 12.4599 10.3454 12.4332C10.2987 12.4132 10.2454 12.3866 10.2054 12.3599C10.1587 12.3266 10.112 12.2932 10.0787 12.2532C9.91869 12.0999 9.83203 11.8866 9.83203 11.6666C9.83203 11.4466 9.91869 11.2332 10.0787 11.0799C10.112 11.0399 10.1587 11.0065 10.2054 10.9732C10.2454 10.9465 10.2987 10.9199 10.3454 10.8999C10.3987 10.8732 10.452 10.8599 10.5054 10.8465C10.612 10.8265 10.7187 10.8265 10.832 10.8465C10.8787 10.8599 10.932 10.8732 10.9854 10.8999C11.032 10.9199 11.0854 10.9465 11.1254 10.9732C11.172 11.0065 11.2187 11.0399 11.252 11.0799C11.412 11.2332 11.4987 11.4466 11.4987 11.6666C11.4987 11.8866 11.412 12.0999 11.252 12.2532C11.2187 12.2932 11.172 12.3266 11.1254 12.3599C11.0854 12.3866 11.032 12.4132 10.9854 12.4332C10.932 12.4599 10.8787 12.4732 10.832 12.4866C10.772 12.4932 10.7187 12.4999 10.6654 12.4999Z" fill="white"/>
<path d="M9.66536 3.83325H6.33203C6.0587 3.83325 5.83203 3.60659 5.83203 3.33325C5.83203 3.05992 6.0587 2.83325 6.33203 2.83325H9.66536C9.9387 2.83325 10.1654 3.05992 10.1654 3.33325C10.1654 3.60659 9.9387 3.83325 9.66536 3.83325Z" fill="white"/>
</svg>
