<svg width="32" height="32" viewBox="0 0 32 32" fill="none" xmlns="http://www.w3.org/2000/svg">
<g clip-path="url(#clip0_8549_54029)">
<path d="M26.375 16C23.2812 16 20.75 18.5312 20.75 21.625C20.75 24.7188 23.2812 27.25 26.375 27.25C29.4688 27.25 32 24.7188 32 21.625C32 18.5312 29.4688 16 26.375 16ZM26.375 25.375C24.3126 25.375 22.625 23.6874 22.625 21.625C22.625 19.5626 24.3126 17.875 26.375 17.875C28.4374 17.875 30.125 19.5626 30.125 21.625C30.125 23.6874 28.4374 25.375 26.375 25.375Z" fill="#E64827"/>
<path d="M5.625 16C2.53119 16 0 18.5312 0 21.625C0 24.7188 2.53119 27.25 5.625 27.25C8.71881 27.25 11.25 24.7188 11.25 21.625C11.25 18.5312 8.71881 16 5.625 16ZM5.625 25.375C3.56256 25.375 1.875 23.6874 1.875 21.625C1.875 19.5626 3.56256 17.875 5.625 17.875C7.68744 17.875 9.375 19.5626 9.375 21.625C9.375 23.6874 7.68744 25.375 5.625 25.375Z" fill="#E64827"/>
<path opacity="0.4" d="M7.5 10.375H17V16H7.5V10.375ZM21.6875 6.625H19.8125C19.2943 6.625 18.875 6.20569 18.875 5.6875C18.875 5.16931 19.2943 4.75 19.8125 4.75H21.6875C22.2057 4.75 22.625 5.16931 22.625 5.6875C22.625 6.20569 22.2057 6.625 21.6875 6.625Z" fill="#E64827"/>
<path opacity="0.4" d="M26.9001 22.4089C26.7312 22.5026 26.5624 22.5589 26.375 22.5589C26.0751 22.5589 25.775 22.4089 25.5876 22.1465L21.2 15.584C20.9001 15.1527 21.0313 14.5714 21.4437 14.2715C21.8749 13.9902 22.4562 14.1027 22.7562 14.5339L26.375 19.9153L27.1624 21.0964C27.4437 21.5277 27.3312 22.1089 26.9001 22.4089ZM16.0625 19.7464V23.4964H5.625C4.59375 23.4964 3.75 22.6527 3.75 21.6214C3.75 20.5902 4.59375 19.7464 5.625 19.7464H16.0625Z" fill="#E64827"/>
<path d="M21.6875 4.75C21.1624 4.75 20.75 5.16244 20.75 5.6875V8.5H17.9375C17.6188 8.5 17.3375 8.65006 17.1501 8.91244L13.6187 14.125H10.8187L7.8375 9.6625C7.35 8.93125 6.54375 8.5 5.66256 8.5H0.9375C0.412437 8.5 0 8.91244 0 9.4375C0 11.8376 1.81869 13.8437 4.16244 14.0874L7.1625 18.5875C7.65 19.3187 8.45625 19.75 9.33744 19.75H11.6062L12.25 20.9312L12.8125 22.0562C13.2624 22.9375 14.1626 23.5 15.175 23.5H16.55C17.8062 23.5 18.875 22.6188 19.1187 21.3812L19.2688 20.7251C20.0187 16.8999 23.4124 14.125 27.3125 14.125C27.8376 14.125 28.25 13.7126 28.25 13.1875V11.3125C28.25 7.69375 25.3062 4.75 21.6875 4.75Z" fill="#E64827"/>
</g>
<defs>
<clipPath id="clip0_8549_54029">
<rect width="32" height="32" fill="white"/>
</clipPath>
</defs>
</svg>
