<svg width="18" height="20" viewBox="0 0 18 20" fill="none" xmlns="http://www.w3.org/2000/svg">
<path d="M8.80324 13.1094L7.80574 13.7266L5.48438 17.2088L3.26437 13.8788L2.16555 13.1094C1.03063 13.5134 0.210938 14.5877 0.210938 15.8595V19.4142C0.210938 19.7381 0.473008 20.0002 0.796875 20.0002H3.14062L4.3125 18.8283H5.48438H6.65625L7.82812 20.0002H10.1719C10.4957 20.0002 10.7578 19.7381 10.7578 19.4142V15.8595C10.7578 14.5877 9.93812 13.5134 8.80324 13.1094Z" fill="#E64827"/>
<path d="M7.82812 20.0002H10.1719C10.4957 20.0002 10.7578 19.7381 10.7578 19.4142V15.8595C10.7578 14.5877 9.93812 13.5134 8.80324 13.1094L7.80574 13.7266L5.48438 17.2088V18.8283H6.65625L7.82812 20.0002Z" fill="#E64827"/>
<path d="M5.48438 6.48438H1.38281V8.82813C1.38281 10.2428 2.39098 11.4263 3.72656 11.6985V12.9297H3.45418L3.31543 13.6005L5.48438 16.5609L7.67863 13.5624L7.51457 12.9297H7.24219V11.6985C8.57777 11.4263 9.58594 10.2428 9.58594 8.82813V6.48438H5.48438Z" fill="#FFE1BA"/>
<path d="M7.51457 12.9297H7.24219V11.6985C8.57777 11.4263 9.58594 10.2428 9.58594 8.82813V6.48438H5.48438V16.5609L7.67863 13.5624L7.51457 12.9297Z" fill="#FFBFAB"/>
<path d="M17.4648 11.8203L12.7773 9.47656V15.2123L17.4648 12.8686C17.6634 12.769 17.7887 12.5665 17.7887 12.3445C17.7887 12.1224 17.6634 11.9199 17.4648 11.8203Z" fill="#E64827"/>
<path d="M12.5156 9.41406C12.192 9.41406 11.9297 9.67633 11.9297 10V19.4141C11.9297 19.7377 12.192 20 12.5156 20C12.8392 20 13.1016 19.7377 13.1016 19.4141V10C13.1016 9.67633 12.8392 9.41406 12.5156 9.41406Z" fill="#FFF7CC"/>
<path d="M13.1016 19.4141V10C13.1016 9.67633 12.8392 9.41406 12.5156 9.41406V20C12.8392 20 13.1016 19.7377 13.1016 19.4141Z" fill="#C0850D"/>
<path d="M5.48438 0C4.46984 0 1.38281 0 1.38281 2.92969V4.72656L2.55469 5.89844H5.48438H8.41406L9.58594 4.72656V2.92969C9.58594 0 6.49891 0 5.48438 0Z" fill="#23704D"/>
<path d="M9.58594 4.72656V2.92969C9.58594 0 6.49891 0 5.48438 0V5.89844H8.41406L9.58594 4.72656Z" fill="#206545"/>
<path d="M10.6962 6.2223L9.5861 4.72656H5.48454H1.38298L0.2729 6.2223C0.181924 6.40371 0.19165 6.61941 0.298642 6.79223C0.405635 6.96504 0.593916 7.07031 0.797041 7.07031H5.48454H10.172C10.3752 7.07031 10.5634 6.96504 10.6704 6.79223C10.7774 6.61941 10.7872 6.40371 10.6962 6.2223Z" fill="#23704D"/>
<path d="M10.6703 6.79223C10.7773 6.61941 10.787 6.40371 10.696 6.2223L9.58594 4.72656H5.48438V7.07031H10.1719C10.375 7.07031 10.5633 6.96504 10.6703 6.79223Z" fill="#1C5A3E"/>
<path d="M7.82863 12.9297H7.51508L5.48488 15.975L3.45469 12.9297H3.14113C2.79758 12.9297 2.47258 13.0001 2.16602 13.1092L4.99734 17.3563C5.10605 17.5193 5.28918 17.6172 5.48484 17.6172C5.68051 17.6172 5.86363 17.5193 5.97234 17.3563L8.80367 13.1092C8.49719 13.0001 8.17219 12.9297 7.82863 12.9297Z" fill="#8C4747"/>
<path d="M8.80324 13.1092C8.49668 13.0001 8.17168 12.9297 7.82812 12.9297H7.51457L5.48438 15.975V17.6172C5.68008 17.6172 5.86316 17.5193 5.97187 17.3563L8.80324 13.1092Z" fill="#8C4747"/>
<path d="M7.24219 16.4453H5.48438H3.72656C3.4027 16.4453 3.14062 16.7074 3.14062 17.0312V20H5.48438H7.82812V17.0312C7.82812 16.7074 7.56605 16.4453 7.24219 16.4453Z" fill="#FFF7CC"/>
<path d="M7.82812 17.0312C7.82812 16.7074 7.56605 16.4453 7.24219 16.4453H5.48438V20H7.82812V17.0312Z" fill="#C0850D"/>
</svg>
