<svg width="21" height="21" viewBox="0 0 21 21" fill="none" xmlns="http://www.w3.org/2000/svg">
<path d="M18.0348 7.30136C17.1644 3.47139 13.8235 1.74707 10.8888 1.74707C10.8888 1.74707 10.8888 1.74707 10.8805 1.74707C7.95418 1.74707 4.60502 3.4631 3.73458 7.29307C2.76465 11.5707 5.38428 15.1934 7.75522 17.4732C8.63396 18.3188 9.7614 18.7415 10.8888 18.7415C12.0163 18.7415 13.1437 18.3188 14.0142 17.4732C16.3851 15.1934 19.0047 11.579 18.0348 7.30136Z" fill="#E64827"/>
<path d="M10.8848 11.4541C12.327 11.4541 13.4961 10.285 13.4961 8.84279C13.4961 7.40059 12.327 6.23145 10.8848 6.23145C9.44258 6.23145 8.27344 7.40059 8.27344 8.84279C8.27344 10.285 9.44258 11.4541 10.8848 11.4541Z" fill="#FEEEE8"/>
</svg>
