<svg width="20" height="20" viewBox="0 0 20 20" fill="none" xmlns="http://www.w3.org/2000/svg">
<path opacity="0.4" d="M17.1849 7.04134C16.3099 3.19134 12.9515 1.45801 10.0015 1.45801C10.0015 1.45801 10.0015 1.45801 9.99321 1.45801C7.05154 1.45801 3.68488 3.18301 2.80988 7.03301C1.83488 11.333 4.46821 14.9747 6.85154 17.2663C7.73488 18.1163 8.86821 18.5413 10.0015 18.5413C11.1349 18.5413 12.2682 18.1163 13.1432 17.2663C15.5265 14.9747 18.1599 11.3413 17.1849 7.04134Z" fill="white"/>
<path d="M10 11.2168C11.4497 11.2168 12.625 10.0415 12.625 8.5918C12.625 7.14205 11.4497 5.9668 10 5.9668C8.55025 5.9668 7.375 7.14205 7.375 8.5918C7.375 10.0415 8.55025 11.2168 10 11.2168Z" fill="white"/>
</svg>
