<svg width="25" height="25" viewBox="0 0 25 25" fill="none" xmlns="http://www.w3.org/2000/svg">
<g clip-path="url(#clip0_8549_51598)">
<path d="M20.6148 12.2686C18.3065 12.2686 16.418 14.1571 16.418 16.4654C16.418 18.7737 18.3065 20.6622 20.6148 20.6622C22.9231 20.6622 24.8116 18.7737 24.8116 16.4654C24.8116 14.1571 22.9231 12.2686 20.6148 12.2686ZM20.6148 19.2632C19.076 19.2632 17.8169 18.0041 17.8169 16.4654C17.8169 14.9266 19.076 13.6675 20.6148 13.6675C22.1536 13.6675 23.4126 14.9266 23.4126 16.4654C23.4126 18.0041 22.1536 19.2632 20.6148 19.2632Z" fill="#E64827"/>
<path d="M5.13431 12.2686C2.82602 12.2686 0.9375 14.1571 0.9375 16.4654C0.9375 18.7737 2.82602 20.6622 5.13431 20.6622C7.4426 20.6622 9.33111 18.7737 9.33111 16.4654C9.33111 14.1571 7.4426 12.2686 5.13431 12.2686ZM5.13431 19.2632C3.59552 19.2632 2.33644 18.0041 2.33644 16.4654C2.33644 14.9266 3.59552 13.6675 5.13431 13.6675C6.67309 13.6675 7.93218 14.9266 7.93218 16.4654C7.93218 18.0041 6.67309 19.2632 5.13431 19.2632Z" fill="#E64827"/>
<path opacity="0.4" d="M6.53516 8.07181H13.6231V12.2686H6.53516V8.07181ZM17.1204 5.27394H15.7215C15.3349 5.27394 15.022 4.96109 15.022 4.57447C15.022 4.18785 15.3349 3.875 15.7215 3.875H17.1204C17.5071 3.875 17.8199 4.18785 17.8199 4.57447C17.8199 4.96109 17.5071 5.27394 17.1204 5.27394Z" fill="#E64827"/>
<path opacity="0.4" d="M21.0066 17.0526C20.8807 17.1226 20.7547 17.1646 20.6149 17.1646C20.3911 17.1646 20.1672 17.0526 20.0274 16.8569L16.7538 11.9606C16.53 11.6388 16.6279 11.2051 16.9357 10.9813C17.2574 10.7715 17.691 10.8554 17.9149 11.1772L20.6149 15.1922L21.2024 16.0734C21.4123 16.3952 21.3283 16.8289 21.0066 17.0526ZM12.9207 15.0662V17.8641H5.13331C4.3639 17.8641 3.73438 17.2345 3.73438 16.4651C3.73438 15.6957 4.3639 15.0662 5.13331 15.0662H12.9207Z" fill="#E64827"/>
<path d="M17.1185 3.875C16.7268 3.875 16.4191 4.18272 16.4191 4.57447V6.67287H14.3207C14.0829 6.67287 13.873 6.78483 13.7331 6.98059L11.0984 10.8697H9.00936L6.78505 7.54021C6.42133 6.99463 5.81978 6.67287 5.16233 6.67287H1.63697C1.24522 6.67287 0.9375 6.98059 0.9375 7.37234C0.9375 9.16302 2.29442 10.6598 4.04309 10.8417L6.28143 14.1991C6.64516 14.7447 7.2467 15.0665 7.90415 15.0665H9.59691L10.0772 15.9478L10.4969 16.7871C10.8326 17.4447 11.5042 17.8644 12.2596 17.8644H13.2854C14.2227 17.8644 15.0201 17.2069 15.202 16.2836L15.3139 15.794C15.8735 12.9401 18.4055 10.8697 21.3153 10.8697C21.7071 10.8697 22.0148 10.562 22.0148 10.1702V8.77127C22.0148 6.07133 19.8185 3.875 17.1185 3.875Z" fill="#E64827"/>
</g>
<defs>
<clipPath id="clip0_8549_51598">
<rect width="23.8752" height="23.8752" fill="white" transform="translate(0.9375 0.330078)"/>
</clipPath>
</defs>
</svg>
