<svg width="1600" height="485" viewBox="0 0 1600 485" fill="none" xmlns="http://www.w3.org/2000/svg">
<path d="M1741.62 227.969C1723.37 229.448 1710.64 228.054 1687.69 228.054C1664.74 228.054 1662.99 227.431 1643.55 229.619C1624.14 231.806 1612.95 230.865 1585.28 231.501C1557.62 232.124 1553.51 232.43 1540.55 238.382C1527.61 244.334 1515.85 246.521 1502.29 248.721C1488.76 250.909 1495.84 252.791 1472.88 257.203C1449.93 261.627 1441.08 266.87 1421.67 271.563C1412.52 273.775 1402.87 275.706 1392.47 277.295C1380.72 279.092 1368.02 280.448 1353.98 281.267C1327.49 282.819 1324.55 284.09 1308.67 286.522C1292.77 288.955 1299.82 291.607 1278.07 291.289C1256.28 290.983 1263.94 292.548 1247.46 291.289C1230.96 290.042 1223.91 286.278 1212.72 284.714C1201.55 283.149 1196.84 285.031 1188 282.844C1179.17 280.644 1158.89 281.389 1158.89 281.389" stroke="url(#paint0_linear_11427_20836)" stroke-width="2" stroke-miterlimit="10"/>
<path d="M4.59766 140.78C4.59766 140.78 80.2591 135.928 128.946 135.928C177.633 135.928 212.603 147.257 252.169 152.109C291.711 156.961 325.188 173.851 354.092 181.991C382.997 190.143 407.145 208.463 440.806 207.131C474.466 205.799 545.142 224.18 554.654 227.052" stroke="url(#paint1_linear_11427_20836)" stroke-width="2" stroke-miterlimit="10"/>
<path opacity="0.38" d="M293.456 126.675V138.579C263.173 131.759 228.456 125.966 190.384 122.166C98.4779 112.999 9.19141 114.833 9.19141 114.833V83.9486C9.19141 83.9486 36.2577 68.1827 90.7578 51.4024C145.258 34.6099 172.991 21.3862 193.049 14.7743C213.13 8.16237 221.747 1.55048 228.433 1.04939C232.752 0.719411 237.876 2.08823 242.517 3.79926C242.517 3.9948 242.563 6.96465 237.049 15.8009C231.305 24.9549 223.654 25.456 237.049 38.6797C250.421 51.9035 247.549 54.4456 262.851 59.0287C278.154 63.5996 278.981 65.1273 281.922 71.2381C284.84 77.3367 286.632 78.3511 281.922 89.0327C277.212 99.7144 274.202 104.298 281.922 110.396C289.619 116.495 293.456 120.063 293.456 126.675Z" fill="url(#paint2_linear_11427_20836)"/>
<path opacity="0.38" d="M536.153 129.645C532.27 132.199 529.329 134.326 522.482 137.357C511.844 142.074 501.804 149.933 478.781 160.296C455.736 170.66 458.7 172.543 449.831 181.489C440.985 190.423 430.944 189.506 430.944 189.506H430.898C418.215 183.896 406.222 177.871 392.574 171.051C370.355 159.954 336.327 148.222 293.453 138.579V126.675C293.453 120.063 289.616 116.494 281.919 110.396C274.199 104.297 277.209 99.714 281.919 89.0323C286.629 78.3506 284.837 77.3362 281.919 71.2377C278.978 65.1269 278.151 63.5991 262.849 59.0283C247.546 54.4452 250.418 51.9031 237.046 38.6793C223.651 25.4555 231.302 24.9544 237.046 15.8004C242.56 6.96422 242.514 3.99437 242.514 3.79883C245.042 4.72767 247.431 5.75429 249.476 6.64646C255.197 9.18856 261.907 18.8436 276.244 27.4965C290.581 36.1372 299.197 42.248 320.221 46.8189C341.267 51.402 342.209 54.9585 359.419 63.0981C376.628 71.2376 387.151 75.3074 410.105 80.3916C433.058 85.4758 437.837 95.6442 456.954 102.256C476.07 108.868 487.558 117.521 507.64 121.591C526.159 125.33 534.913 129.082 536.153 129.645Z" fill="url(#paint3_linear_11427_20836)"/>
<path d="M234.178 1C234.178 1 219.841 15.8004 201.667 20.3712C183.492 24.9544 189.259 28.963 174.899 34.6094C156.035 42.0279 151.004 41.7346 141.422 49.3609C131.864 56.9872 130.899 59.9937 113.69 65.359C96.4804 70.7243 93.6084 73.7797 76.399 79.3649C59.1897 84.9624 55.3526 84.9624 41.0153 93.102C26.678 101.242 9.16992 109.882 9.16992 109.882" stroke="url(#paint4_linear_11427_20836)" stroke-width="0.5" stroke-miterlimit="10"/>
<path d="M231.998 33.0078C231.998 33.0078 221.176 37.3587 208.447 44.105C195.971 50.7291 178.739 62.0341 168.216 65.3584C157.693 68.6949 151.006 73.2658 144.32 76.8223C137.634 80.3788 128.742 82.4198 121.711 87.504C114.681 92.5881 101.285 99.7133 88.8551 102.757C76.4248 105.812 52.5293 114.673 52.5293 114.673" stroke="url(#paint5_linear_11427_20836)" stroke-width="0.5" stroke-miterlimit="10"/>
<path d="M254.995 56.1562C254.995 56.1562 252.398 58.7106 245 62.8781C237.601 67.0457 236.292 67.9379 227.584 73.8654C218.876 79.7928 214.097 81.4061 204.952 83.496C195.807 85.5859 191.465 88.5924 186.663 90.9023C181.884 93.2122 183.607 94.6054 172.302 98.3086C160.975 102.012 155.759 103.637 145.305 107.108C134.851 110.579 127.774 117.411 126.051 117.313" stroke="url(#paint6_linear_11427_20836)" stroke-width="0.5" stroke-miterlimit="10"/>
<path d="M284.75 80.4766C284.75 80.4766 275.054 87.1862 258.075 91.8182C241.095 96.4502 238.039 99.4567 225.862 106.179C213.661 112.888 207.389 118.034 192.684 122.409" stroke="url(#paint7_linear_11427_20836)" stroke-width="0.5" stroke-miterlimit="10"/>
<path d="M284.751 112.68C284.751 112.68 280.27 119.182 270.689 122.408C261.108 125.635 254.996 130.951 254.996 130.951" stroke="url(#paint8_linear_11427_20836)" stroke-width="0.5" stroke-miterlimit="10"/>
<path d="M9.19336 96.9756C9.19336 96.9756 23.6685 88.9093 36.8111 83.2629C49.9536 77.6166 69.6444 72.7768 79.2486 68.487C88.8527 64.185 107.027 57.4631 115.115 54.2488C123.202 51.0346 139.883 41.8806 154.519 35.9775C169.178 30.0623 178.783 23.0715 188.364 19.0506C197.945 15.0297 205.045 10.1777 205.045 10.1777" stroke="url(#paint9_linear_11427_20836)" stroke-width="0.5" stroke-miterlimit="10"/>
<path d="M9.19336 89.7175C9.19336 89.7175 20.1302 84.1322 30.7453 80.478C41.3604 76.8237 52.481 71.1773 62.0622 67.9508C71.6434 64.7243 82.7869 59.139 91.8626 56.157C100.961 53.1749 119.136 46.453 128.234 42.6888C137.333 38.9245 144.915 33.0215 144.915 33.0215" stroke="url(#paint10_linear_11427_20836)" stroke-width="0.5" stroke-miterlimit="10"/>
<path d="M26.1953 114.686C26.1953 114.686 43.8872 107.512 54.9848 101.438C66.1054 95.3639 77.7315 92.0763 92.3675 86.7233C107.026 81.3824 118.63 75.5038 129.75 71.1774C140.871 66.8632 148.958 63.6367 154.519 59.8724C160.079 56.1081 163.617 53.1505 171.705 49.3863C179.793 45.622 184.342 45.0843 192.683 39.7067C201.023 34.3292 217.681 28.1451 223.241 23.8553C228.802 19.5655 237.05 15.7891 237.05 15.7891" stroke="url(#paint11_linear_11427_20836)" stroke-width="0.5" stroke-miterlimit="10"/>
<path d="M90.3672 115.517C90.3672 115.517 104.521 112.021 117.135 106.106C129.772 100.191 133.471 98.5774 151.324 91.5989C169.176 84.6081 170.187 81.9194 184.341 76.5541C198.494 71.1888 201.022 69.8078 208.099 65.2491C215.175 60.6905 221.333 57.1951 229.627 53.5653C237.922 49.9355 243.482 45.0957 243.482 45.0957" stroke="url(#paint12_linear_11427_20836)" stroke-width="0.5" stroke-miterlimit="10"/>
<path d="M160.08 119.283C160.08 119.283 170.695 113.685 182.827 109.896C194.958 106.108 201.024 102.356 212.122 96.9781C223.242 91.6006 228.412 89.1319 238.705 84.7199C248.999 80.3079 254.858 77.8758 261.521 73.8548C268.207 69.8339 278.041 65.373 278.041 65.373" stroke="url(#paint13_linear_11427_20836)" stroke-width="0.5" stroke-miterlimit="10"/>
<path d="M222.023 125.879C222.023 125.879 233.328 123.129 241.416 117.312C249.503 111.494 254.834 111.494 261.52 107.73C268.206 103.966 278.04 99.957 278.04 99.957" stroke="url(#paint14_linear_11427_20836)" stroke-width="0.5" stroke-miterlimit="10"/>
<path d="M272.752 134.216C272.752 134.216 279.048 131.637 284.746 127.873C290.444 124.109 292.581 121.799 292.581 121.799" stroke="url(#paint15_linear_11427_20836)" stroke-width="0.5" stroke-miterlimit="10"/>
<path d="M264.252 132.602C264.252 132.602 271.857 128.715 278.061 125.88C284.264 123.044 289.71 117.312 289.71 117.312" stroke="url(#paint16_linear_11427_20836)" stroke-width="0.5" stroke-miterlimit="10"/>
<path d="M281.926 136.086C281.926 136.086 290.657 132.737 293.46 129.73" stroke="url(#paint17_linear_11427_20836)" stroke-width="0.5" stroke-miterlimit="10"/>
<path d="M238.703 128.277C238.703 128.277 244.539 125.002 252.397 121.812C260.255 118.622 261.174 115.567 266.711 112.915C272.249 110.263 278.82 107.293 278.82 107.293" stroke="url(#paint18_linear_11427_20836)" stroke-width="0.5" stroke-miterlimit="10"/>
<path d="M210.117 124.353C210.117 124.353 220.985 120.576 226.063 116.397C231.141 112.229 239.826 109.772 250.027 104.615C260.229 99.4574 278.288 93.3099 282.654 87.2969" stroke="url(#paint19_linear_11427_20836)" stroke-width="0.5" stroke-miterlimit="10"/>
<path d="M175.748 120.333C175.748 120.333 188.224 116.887 197.461 111.24C206.697 105.594 219.174 103.382 226.549 98.9575C233.947 94.5333 243.276 88.8869 254.994 84.7071C266.712 80.5396 278.315 76.9831 282.657 72.7422" stroke="url(#paint20_linear_11427_20836)" stroke-width="0.5" stroke-miterlimit="10"/>
<path d="M142.248 117.788C142.248 117.788 149.486 113.29 160.078 109.82C170.67 106.336 181.745 103.147 190.522 98.9789C199.299 94.7992 202.056 91.8537 214.991 87.3073C227.927 82.7731 238.198 78.5933 243.436 74.9024C248.698 71.2237 258.233 65.5162 269.859 61.373" stroke="url(#paint21_linear_11427_20836)" stroke-width="0.5" stroke-miterlimit="10"/>
<path d="M107.484 116.408C107.484 116.408 123.499 110.236 131.61 105.824C139.72 101.424 157.734 98.2343 163.271 94.5434C168.809 90.8647 179.562 87.3815 192.658 81.8818C205.755 76.3821 213.819 71.7012 222.022 66.7881C230.225 61.875 242.609 55.6298 250.03 52.8555" stroke="url(#paint22_linear_11427_20836)" stroke-width="0.5" stroke-miterlimit="10"/>
<path d="M73.25 114.686C73.25 114.686 83.4056 110.714 94.9627 107.292C106.497 103.87 118.054 97.9789 129.129 91.0981C140.203 84.2174 159.458 80.0498 166.925 76.6033C174.392 73.169 184.548 66.2394 196.542 61.3507C208.535 56.4621 215.221 49.5813 222.045 46.3915C228.869 43.2016 238.726 40.3418 238.726 40.3418" stroke="url(#paint23_linear_11427_20836)" stroke-width="0.5" stroke-miterlimit="10"/>
<path d="M40.002 114.687C40.002 114.687 54.3163 106.584 66.31 103.382C78.3267 100.192 93.1005 94.9121 101.395 89.5712C109.713 84.2304 130.024 78.694 138.801 73.842C147.578 68.99 161.892 61.9626 172.507 56.1451C183.122 50.3276 192.818 46.0867 202.974 40.3426C213.13 34.6107 230.684 28.2188 230.684 28.2188" stroke="url(#paint24_linear_11427_20836)" stroke-width="0.5" stroke-miterlimit="10"/>
<path d="M11.3711 114.684C11.3711 114.684 31.2227 106.337 45.5371 99.9452C59.8514 93.5533 69.0879 88.3958 82.4832 83.4827C95.8785 78.5696 110.193 74.4998 119.429 69.7823C128.666 65.0647 139.373 59.0517 151.344 52.8431C163.291 46.6346 172.987 44.838 181.764 40.3404C190.541 35.8307 196.033 29.6954 205.063 26.0045C214.092 22.3258 241.319 7.09766 241.319 7.09766" stroke="url(#paint25_linear_11427_20836)" stroke-width="0.5" stroke-miterlimit="10"/>
<path d="M9.19336 103.391C9.19336 103.391 22.9103 95.8996 36.3056 89.581C49.7008 83.2502 63.8084 78.9482 77.0658 73.8518C90.3232 68.7554 105.557 63.109 113.874 59.1737C122.192 55.2383 130.026 50.3374 138.344 46.1576C146.661 41.9779 161.895 36.5637 169.27 33.0072C176.669 29.4507 182.344 24.7821 192.66 20.3701C202.977 15.9458 210.306 10.3972 215.637 5.67969" stroke="url(#paint26_linear_11427_20836)" stroke-width="0.5" stroke-miterlimit="10"/>
<path d="M4.59375 83.9606C4.59375 83.9606 36.2553 68.1948 90.7554 51.4145C145.256 34.6342 172.988 21.4105 193.07 14.7986C213.151 8.18668 221.744 1.57479 228.453 1.06148C235.139 0.548173 243.756 4.11688 249.5 6.65898C255.244 9.20107 261.93 18.8684 276.267 27.509C290.605 36.1497 299.221 42.2605 320.244 46.8314C341.291 51.4145 342.233 54.971 359.442 63.1106C376.651 71.2502 387.175 75.32 410.128 80.4042C433.082 85.4884 437.861 95.6567 456.977 102.269C476.093 108.881 487.582 117.521 507.663 121.591C527.744 125.661 536.338 129.731 536.338 129.731" stroke="url(#paint27_linear_11427_20836)" stroke-width="2" stroke-miterlimit="10"/>
<path d="M242.514 3.79883C242.514 3.79883 242.767 6.64646 237.046 15.8004C231.302 24.9544 223.651 25.4677 237.046 38.6915C250.441 51.9153 247.569 54.4574 262.872 59.0405C278.174 63.6236 279.001 65.1391 281.919 71.2499C284.86 77.3485 286.629 78.3751 281.919 89.0568C277.209 99.7384 274.199 104.309 281.919 110.42C289.639 116.519 293.453 120.087 293.453 126.699V138.603" stroke="url(#paint28_linear_11427_20836)" stroke-width="2" stroke-miterlimit="10"/>
<path opacity="0.12" d="M1096.19 318.912C1086.21 318.533 1075.71 317.751 1064.64 316.492C1010.65 310.381 946.311 290.827 921.037 285.327C895.763 279.827 830.28 273.105 794.666 272.494C759.053 271.883 657.957 270.05 625.79 255.384C593.623 240.718 579.837 232.163 517.8 217.497C478.12 208.111 453.489 199.482 430.949 189.522C430.949 189.522 440.99 190.426 449.836 181.492C458.705 172.546 455.741 170.664 478.786 160.3C501.809 149.936 511.849 142.078 522.487 137.36C533.125 132.655 534.297 130.137 544.338 124.796C554.379 119.455 569.153 106.892 578.596 102.492C588.039 98.092 593.347 94.6333 598.08 93.3867C598.08 93.3867 607.523 99.9742 614.623 104.374C621.7 108.774 627.605 109.287 635.302 114.689C642.976 120.091 643.55 128.573 651.247 134.537C658.922 140.501 664.827 150.242 681.37 157.159C697.89 164.064 712.066 171.556 722.107 177.704C732.148 183.863 746.921 192.345 760.501 197.209C774.08 202.086 793.564 205.532 797.699 207.427C801.835 209.309 800.066 213.916 805.396 216.959C810.704 219.99 825.478 223.755 841.424 226.59C857.369 229.413 860.908 230.978 874.487 236.636C888.066 242.295 899.876 235.072 912.283 236.636C924.69 238.213 943.002 243.859 960.717 249.836C978.432 255.8 979.627 260.517 990.242 266.164C1000.88 271.822 997.916 274.022 1009.15 278.74C1020.36 283.445 1027.46 289.421 1038.68 296.009C1049.89 302.608 1064.8 307.729 1074.11 312.972C1082.56 317.739 1094.1 318.765 1096.19 318.912Z" fill="url(#paint29_linear_11427_20836)"/>
<path opacity="0.38" d="M1239.54 301.214C1222.19 302.473 1204.82 305.039 1189.86 309.17C1165.25 315.953 1134.86 320.439 1096.37 318.935C1096.3 318.935 1096.26 318.935 1096.19 318.923C1096.12 318.923 1096.05 318.911 1095.96 318.911C1093.38 318.703 1082.29 317.603 1074.11 312.983C1064.8 307.74 1049.89 302.62 1038.68 296.02C1027.46 289.432 1020.36 283.456 1009.15 278.751C997.916 274.033 1000.88 271.833 990.242 266.175C979.627 260.528 978.432 255.811 960.717 249.847C943.003 243.87 924.69 238.224 912.283 236.647C899.876 235.083 888.066 242.306 874.487 236.647C860.908 230.989 857.369 229.424 841.424 226.601C825.478 223.766 810.704 220.001 805.397 216.971C800.066 213.927 801.835 209.32 797.7 207.438C793.564 205.543 774.08 202.097 760.501 197.22C746.922 192.356 732.148 183.874 722.107 177.715C712.066 171.567 697.89 164.075 681.37 157.17C664.827 150.253 658.922 140.512 651.248 134.548C643.55 128.584 642.976 120.102 635.302 114.7C627.605 109.298 621.7 108.785 614.623 104.385C607.523 99.9853 598.08 93.3979 598.08 93.3979C602.813 92.139 623.469 98.7387 628.202 101.88C632.935 105.021 642.241 107.734 652.282 111.254C662.322 114.761 660.691 118.843 673.098 127.325C685.482 135.807 707.356 148.994 722.704 156.852C738.053 164.711 753.998 171.262 778.215 177.715C802.433 184.18 823.686 186.074 840.229 186.698C856.772 187.321 875.659 186.074 880.989 187.639C886.297 189.215 892.799 196.438 899.301 199.579C905.781 202.72 912.283 205.238 920.555 208.684C928.826 212.143 934.134 215.602 947.138 219.366C960.12 223.142 961.889 224.401 980.201 230.048C998.514 235.706 996.744 239.471 1023.33 244.811C1049.89 250.152 1055.22 252.022 1071.17 257.216C1078.08 259.465 1084.22 261.396 1090.21 263.168C1098.02 265.466 1105.58 267.507 1114.27 269.633C1129.64 273.41 1138.49 273.41 1153.26 279.056C1155.4 279.887 1157.26 280.657 1158.89 281.403C1168.49 285.729 1170.84 288.724 1183.96 291.938C1199.33 295.714 1198.73 293.197 1216.45 295.714C1234.16 298.22 1239.54 301.214 1239.54 301.214Z" fill="url(#paint30_linear_11427_20836)"/>
<path d="M607.75 99.9492C607.75 99.9492 599.272 102.491 591.598 107.527C583.924 112.55 578.019 118.832 574.481 122.29C570.942 125.749 572.114 127.949 561.476 132.031C550.838 136.113 534.318 144.913 518.947 152.135C503.598 159.358 501.232 161.876 493.558 168.476C485.883 175.075 481.15 173.157 473.476 181.504C465.802 189.851 461.046 196.94 461.942 201.719" stroke="url(#paint31_linear_11427_20836)" stroke-width="0.5" stroke-miterlimit="10"/>
<path d="M637.39 116.412C637.39 116.412 618.021 119.785 607.751 126.067C597.503 132.349 589.806 136.431 584.499 141.772C579.191 147.113 582.729 147.431 574.458 152.771C566.186 158.112 554.376 167.217 541.395 173.817C528.39 180.417 523.68 185.122 518.947 189.522C514.214 193.922 514.214 195.999 507.137 201.707C500.06 207.426 495.074 211.777 495.074 211.777" stroke="url(#paint32_linear_11427_20836)" stroke-width="0.5" stroke-miterlimit="10"/>
<path d="M654.299 137.166C654.299 137.166 648.302 142.397 642.397 146.797C636.492 151.196 628.221 153.079 622.316 157.478C616.411 161.878 619.214 162.819 607.772 168.783C596.33 174.747 580.981 181.983 573.307 187.947C565.633 193.911 559.062 202.087 554.673 208.051C550.285 214.015 545.552 218.379 541.117 223.426" stroke="url(#paint33_linear_11427_20836)" stroke-width="0.5" stroke-miterlimit="10"/>
<path d="M666.986 148.848C666.986 148.848 660.69 150.571 659.495 157.158C658.324 163.758 655.36 164.076 651.224 166.899C647.088 169.722 647.686 173.45 642.952 177.715C638.219 181.98 636.45 185.121 629.373 188.58C622.297 192.039 622.871 191.098 613.428 200.203C603.984 209.308 602.215 210.163 591.577 216.959C580.939 223.754 580.456 229.339 573.908 233.152" stroke="url(#paint34_linear_11427_20836)" stroke-width="0.5" stroke-miterlimit="10"/>
<path d="M696.828 164.09C696.828 164.09 693.174 168.783 683.134 175.065C673.093 181.347 670.129 184.17 661.881 193.605C653.609 203.028 657.147 207.33 643.568 216.96C629.989 226.591 630.426 233.814 620.454 239.473C610.482 245.131 607.748 247.038 607.748 247.038" stroke="url(#paint35_linear_11427_20836)" stroke-width="0.5" stroke-miterlimit="10"/>
<path d="M726.378 180.294C725.666 179.866 717.969 183.68 710.892 190.988C703.816 198.297 700.852 199.25 689.639 208.355C678.427 217.46 669.764 219.66 667.007 225.942C664.25 232.224 659.264 238.188 652.302 244.164C645.341 250.128 637.391 259.392 637.391 259.392" stroke="url(#paint36_linear_11427_20836)" stroke-width="0.5" stroke-miterlimit="10"/>
<path d="M757.073 195.926C757.073 195.926 755.763 198.945 742.184 207.426C728.605 215.908 722.103 223.058 713.831 233.153C705.56 243.248 703.791 245.753 694.347 252.671C684.904 259.588 681.871 266.872 681.871 266.872" stroke="url(#paint37_linear_11427_20836)" stroke-width="0.5" stroke-miterlimit="10"/>
<path d="M787.866 204.688C787.866 204.688 783.547 210.847 771.737 223.423C759.927 236.011 757.56 236.06 747.52 247.023C737.479 257.998 726.404 270.281 726.404 270.281" stroke="url(#paint38_linear_11427_20836)" stroke-width="0.5" stroke-miterlimit="10"/>
<path d="M810.105 219.844C810.105 219.844 804.2 227.03 797.697 237.492C791.195 247.953 787.657 255.812 780.58 261.776C773.503 267.74 771.137 272.018 771.137 272.018" stroke="url(#paint39_linear_11427_20836)" stroke-width="0.5" stroke-miterlimit="10"/>
<path d="M847.302 227.689C847.302 227.689 844.407 233.214 835.24 245.924C826.072 258.635 824.9 262.949 816.031 273.362" stroke="url(#paint40_linear_11427_20836)" stroke-width="0.5" stroke-miterlimit="10"/>
<path d="M890.272 238.615C890.272 238.615 882.759 245.753 876.854 254.552C870.949 263.352 868.238 269.903 859.254 276.832" stroke="url(#paint41_linear_11427_20836)" stroke-width="0.5" stroke-miterlimit="10"/>
<path d="M937.075 242.33C937.075 242.33 931.193 247.94 921.75 257.216C912.306 266.492 910.422 272.114 897.785 281.403" stroke="url(#paint42_linear_11427_20836)" stroke-width="0.5" stroke-miterlimit="10"/>
<path d="M976.776 257.217C976.776 257.217 965.333 263.279 957.429 273.362C949.502 283.457 944.149 285.253 937.072 289.225" stroke="url(#paint43_linear_11427_20836)" stroke-width="0.5" stroke-miterlimit="10"/>
<path d="M1034.63 293.562C1034.63 293.562 1024.38 300.834 1014.11 308.008" stroke="url(#paint44_linear_11427_20836)" stroke-width="0.5" stroke-miterlimit="10"/>
<path d="M1056.57 304.77C1056.57 304.77 1052.05 311.137 1045.08 313.801" stroke="url(#paint45_linear_11427_20836)" stroke-width="0.5" stroke-miterlimit="10"/>
<path d="M446.273 195.927C446.273 195.927 456.475 188.911 461.829 181.505C467.182 174.087 476.556 169.1 488.849 162.183C501.118 155.265 513.48 149.13 522.463 143.753C531.447 138.375 545.164 132.301 558.169 124.968C571.173 117.635 577.906 108.518 602.697 96.5527" stroke="url(#paint46_linear_11427_20836)" stroke-width="0.5" stroke-miterlimit="10"/>
<path d="M470.906 204.69C470.906 204.69 477.294 192.896 487.403 184.83C497.513 176.764 504.015 174.466 512.677 166.779C521.34 159.091 550.221 144.951 559.618 138.583C569.016 132.216 574.783 130.603 584.157 121.803C593.555 113.003 614.624 104.375 614.624 104.375" stroke="url(#paint47_linear_11427_20836)" stroke-width="0.5" stroke-miterlimit="10"/>
<path d="M481.633 207.488C481.633 207.488 492.087 194.435 503.828 187.126C515.569 179.83 532.434 167.535 542.773 160.63C553.113 153.713 569.725 144.021 578.387 137.152C587.049 130.284 618.71 112.355 626.316 109.812" stroke="url(#paint48_linear_11427_20836)" stroke-width="0.5" stroke-miterlimit="10"/>
<path d="M507.047 215.579C507.047 215.579 525.658 197.161 532.16 190.989C538.662 184.83 560.329 172.144 570.439 164.09C580.549 156.023 591.6 146.49 602.675 138.583C613.75 130.676 629.419 123.868 637.369 119.285" stroke="url(#paint49_linear_11427_20836)" stroke-width="0.5" stroke-miterlimit="10"/>
<path d="M523.496 218.634C523.496 218.634 530.963 211.57 542.75 199.935C554.537 188.3 569.702 179.843 581.971 169.088C594.241 158.333 604.649 155.644 614.598 147.578C624.57 139.512 638.861 134.953 645.432 128.023" stroke="url(#paint50_linear_11427_20836)" stroke-width="0.5" stroke-miterlimit="10"/>
<path d="M659.954 142.592C659.954 142.592 650.166 153.603 637.369 158.663C624.571 163.723 616.138 175.627 602.674 183.302C589.21 190.977 584.109 192.859 572.207 201.72C560.306 210.581 548.863 225.454 548.863 225.454" stroke="url(#paint51_linear_11427_20836)" stroke-width="0.5" stroke-miterlimit="10"/>
<path d="M562.029 229.266C562.029 229.266 566.119 220.283 579.101 211.777C592.082 203.271 606.098 194.813 614.622 187.908C623.147 180.991 633.969 172.167 641.183 165.628C648.398 159.102 663.815 146.232 663.815 146.232" stroke="url(#paint52_linear_11427_20836)" stroke-width="0.5" stroke-miterlimit="10"/>
<path d="M584.479 237.493C584.479 237.493 593.807 227.581 607.754 216.961C621.7 206.34 629.237 196.392 637.393 191.002C645.527 185.612 654.189 177.155 659.979 171.007C665.746 164.86 670.824 157.209 673.719 153.359" stroke="url(#paint53_linear_11427_20836)" stroke-width="0.5" stroke-miterlimit="10"/>
<path d="M598.971 243.053C598.971 243.053 607.541 234.718 614.618 227.055C621.694 219.392 633.964 214.552 642.626 204.689C651.288 194.814 654.229 190.292 665.396 180.258C676.562 170.236 687.062 159.604 687.062 159.604" stroke="url(#paint54_linear_11427_20836)" stroke-width="0.5" stroke-miterlimit="10"/>
<path d="M617.174 251.414C617.174 251.414 627.789 243.995 637.393 233.424C646.974 222.852 655.682 214.003 665.424 205.558C675.143 197.113 682.358 186.896 690.308 180.296C698.258 173.697 705.771 168.539 705.771 168.539" stroke="url(#paint55_linear_11427_20836)" stroke-width="0.5" stroke-miterlimit="10"/>
<path d="M625.789 255.396C625.789 255.396 645.319 241.525 652.281 233.153C659.243 224.781 667.17 215.175 677.279 207.5C687.389 199.825 706.436 185.635 714.616 173.328" stroke="url(#paint56_linear_11427_20836)" stroke-width="0.5" stroke-miterlimit="10"/>
<path d="M649.045 262.119C649.045 262.119 656.857 253.931 663.842 247.038C670.804 240.145 674.939 233.423 681.901 225.455C688.863 217.486 704.028 207.733 711.242 199.936C718.457 192.139 732.794 184.023 732.794 184.023" stroke="url(#paint57_linear_11427_20836)" stroke-width="0.5" stroke-miterlimit="10"/>
<path d="M666.982 265.075C666.982 265.075 674.197 251.668 681.871 244.371C689.545 237.075 692.9 234.814 703.147 223.081C713.395 211.348 738.141 201.4 745.975 191.012" stroke="url(#paint58_linear_11427_20836)" stroke-width="0.5" stroke-miterlimit="10"/>
<path d="M696.326 268.243C696.326 268.243 698.854 264.503 706.482 255.386C714.11 246.268 723.301 237.787 732.79 227.056C742.279 216.326 754.893 204.605 760.499 197.211" stroke="url(#paint59_linear_11427_20836)" stroke-width="0.5" stroke-miterlimit="10"/>
<path d="M714.617 268.732C714.617 268.732 727.622 255.166 732.792 245.927C737.938 236.675 748.783 231.383 757.078 222.51C765.372 213.637 767.164 208.211 775.643 201.709" stroke="url(#paint60_linear_11427_20836)" stroke-width="0.5" stroke-miterlimit="10"/>
<path d="M740.188 270.968C740.188 270.968 751.676 262.584 757.075 255.398C762.475 248.211 767.874 239.558 775.64 231.015C783.406 222.473 792.482 213.893 797.698 207.428" stroke="url(#paint61_linear_11427_20836)" stroke-width="0.5" stroke-miterlimit="10"/>
<path d="M757.076 270.295C757.076 270.295 770.77 260.005 775.641 251.425C780.512 242.845 789.358 234.376 794.689 228.045C800.019 221.714 802.455 214.369 802.455 214.369" stroke="url(#paint62_linear_11427_20836)" stroke-width="0.5" stroke-miterlimit="10"/>
<path d="M787.865 272.017C787.865 272.017 795.493 263.462 802.455 251.424C809.417 239.385 817.229 231.784 821.985 222.52" stroke="url(#paint63_linear_11427_20836)" stroke-width="0.5" stroke-miterlimit="10"/>
<path d="M799.883 272.629C799.883 272.629 808.913 262.693 816.035 251.412C823.158 240.132 830.74 233.031 835.244 225.441" stroke="url(#paint64_linear_11427_20836)" stroke-width="0.5" stroke-miterlimit="10"/>
<path d="M830.258 274.303C830.258 274.303 836.163 268.705 841.218 259.417C846.272 250.128 858.381 238.017 861.345 231.393" stroke="url(#paint65_linear_11427_20836)" stroke-width="0.5" stroke-miterlimit="10"/>
<path d="M845.789 274.303C845.789 274.303 854.75 265.271 861.321 255.396C867.892 245.521 874.487 236.648 874.487 236.648" stroke="url(#paint66_linear_11427_20836)" stroke-width="0.5" stroke-miterlimit="10"/>
<path d="M872.832 278.275C872.832 278.275 882.298 269.17 890.271 257.731C898.244 246.291 912.283 236.648 912.283 236.648" stroke="url(#paint67_linear_11427_20836)" stroke-width="0.5" stroke-miterlimit="10"/>
<path d="M885.627 279.779C885.627 279.779 898.953 265.431 906.168 255.471C913.383 245.51 925.422 239.191 925.422 239.191" stroke="url(#paint68_linear_11427_20836)" stroke-width="0.5" stroke-miterlimit="10"/>
<path d="M909.824 283.227C909.824 283.227 915.109 279.829 925.448 268.243C935.788 256.657 948.631 245.865 948.631 245.865" stroke="url(#paint69_linear_11427_20836)" stroke-width="0.5" stroke-miterlimit="10"/>
<path d="M926.229 286.525C926.229 286.525 937.234 280.157 945.161 266.872C953.111 253.587 960.716 249.848 960.716 249.848" stroke="url(#paint70_linear_11427_20836)" stroke-width="0.5" stroke-miterlimit="10"/>
<path d="M950.537 292.698C950.537 292.698 961.06 282.358 968.275 274.304C975.49 266.25 983.715 262.119 983.715 262.119" stroke="url(#paint71_linear_11427_20836)" stroke-width="0.5" stroke-miterlimit="10"/>
<path d="M961.152 295.435C961.152 295.435 967.953 293.284 976.776 283.225C985.599 273.167 996.651 270.295 996.651 270.295" stroke="url(#paint72_linear_11427_20836)" stroke-width="0.5" stroke-miterlimit="10"/>
<path d="M985.623 301.57C985.623 301.57 995.365 300.141 1002.03 293.565C1008.71 286.99 1014.83 281.393 1014.83 281.393" stroke="url(#paint73_linear_11427_20836)" stroke-width="0.5" stroke-miterlimit="10"/>
<path d="M999.361 304.771C999.361 304.771 1007.93 300.811 1014.82 295.433C1021.69 290.068 1024.36 286.182 1024.36 286.182" stroke="url(#paint74_linear_11427_20836)" stroke-width="0.5" stroke-miterlimit="10"/>
<path d="M1026.41 310.493C1026.41 310.493 1031.67 308.33 1034.61 304.773C1037.57 301.205 1045.04 299.457 1045.04 299.457" stroke="url(#paint75_linear_11427_20836)" stroke-width="0.5" stroke-miterlimit="10"/>
<path d="M1038.77 312.753C1038.77 312.753 1047.45 305.872 1050.83 302.193" stroke="url(#paint76_linear_11427_20836)" stroke-width="0.5" stroke-miterlimit="10"/>
<path d="M1058.44 315.747C1058.44 315.747 1064.94 311.115 1065.35 308.658" stroke="url(#paint77_linear_11427_20836)" stroke-width="0.5" stroke-miterlimit="10"/>
<path d="M977.328 299.456C977.328 299.456 982.728 295.289 989.207 289.214C995.709 283.153 998.972 280.5 1002.03 276.834" stroke="url(#paint78_linear_11427_20836)" stroke-width="0.5" stroke-miterlimit="10"/>
<path d="M1239.54 301.214C1239.54 301.214 1234.16 298.22 1216.44 295.714C1198.73 293.197 1199.33 295.714 1183.96 291.938C1170.84 288.724 1168.49 285.729 1158.89 281.403C1157.26 280.657 1155.4 279.887 1153.26 279.056C1138.49 273.41 1129.64 273.41 1114.27 269.633C1105.58 267.507 1098.02 265.466 1090.21 263.168C1084.22 261.396 1078.08 259.465 1071.16 257.216C1055.22 252.022 1049.89 250.152 1023.33 244.811C996.744 239.47 998.513 235.706 980.201 230.048C961.889 224.401 960.12 223.142 947.138 219.366C934.133 215.602 928.826 212.143 920.554 208.684C912.283 205.238 905.78 202.72 899.301 199.579C892.799 196.438 886.296 189.215 880.989 187.639C875.658 186.074 856.772 187.321 840.229 186.698C823.686 186.074 802.432 184.18 778.215 177.715C753.998 171.262 738.052 164.711 722.704 156.852C707.356 148.994 685.482 135.807 673.098 127.325C660.691 118.843 662.322 114.761 652.281 111.254C642.241 107.734 632.935 105.021 628.202 101.88C623.469 98.7387 602.813 92.139 598.08 93.3979C593.347 94.6445 588.039 98.1032 578.596 102.503C569.153 106.903 554.379 119.467 544.338 124.807C534.297 130.148 533.125 132.666 522.487 137.371C511.849 142.089 501.809 149.947 478.786 160.311C455.741 170.675 458.705 172.557 449.836 181.503C440.99 190.437 430.949 189.521 430.949 189.521" stroke="url(#paint79_linear_11427_20836)" stroke-width="2" stroke-miterlimit="10"/>
<path d="M598.08 93.3867C598.08 93.3867 607.523 99.9864 614.623 104.386C621.7 108.786 627.605 109.299 635.302 114.689C642.976 120.091 643.573 128.573 651.248 134.537C658.922 140.501 664.827 150.242 681.37 157.159C697.913 164.076 712.089 171.568 722.13 177.716C732.171 183.863 746.944 192.357 760.524 197.221C774.103 202.086 793.587 205.544 797.722 207.427C801.858 209.309 800.089 213.928 805.397 216.959C810.704 219.99 825.478 223.767 841.424 226.59C857.369 229.413 860.908 230.99 874.487 236.648C888.066 242.307 899.876 235.072 912.283 236.648C924.69 238.225 943.002 243.871 960.717 249.848C978.432 255.812 979.627 260.529 990.242 266.188C1000.86 271.847 997.916 274.047 1009.15 278.752C1020.36 283.469 1027.46 289.434 1038.68 296.033C1049.89 302.633 1064.8 307.754 1074.11 312.997C1083.41 318.24 1096.51 318.961 1096.51 318.961" stroke="url(#paint80_linear_11427_20836)" stroke-width="2" stroke-miterlimit="10"/>
<path opacity="0.12" d="M1180.37 359.936C1121.55 350.195 1062.98 339.367 1034.08 335.321C1005.17 331.276 947.366 332.082 916.945 331.276C886.525 330.457 859.137 325.605 815.022 320.362C770.907 315.131 732.881 301.333 722.243 299.023C711.582 296.713 662.895 298.901 630.958 295.662C599.02 292.436 564.027 283.526 541.212 276.242C518.396 268.97 500.13 268.151 472.742 265.157C445.377 262.15 442.321 257.641 404.295 258.447C366.269 259.254 305.427 264.925 276.523 265.157C247.618 265.389 247.618 258.447 198.931 264.509C150.244 270.583 141.123 273.822 83.3139 270.583C25.5051 267.345 9.21484 258.447 9.21484 258.447V223.652C9.21484 223.652 20.9558 227.087 51.3766 228.199C81.7974 229.311 211.109 223.347 253.707 225.926C296.283 228.504 325.187 238.22 343.453 239.834C361.697 241.447 416.472 234.175 434.716 235.788C452.982 237.402 492.524 238.22 503.186 235.788C513.824 233.356 522.945 242.266 544.244 247.118C565.544 251.97 597.481 263.299 637.046 267.345C676.589 271.39 685.733 276.242 708.549 286.765C731.365 297.288 781.568 295.662 828.716 296.481C875.864 297.288 926.412 302.14 957.43 311.856C988.448 321.56 1008.23 327.23 1038.65 328.037C1069.07 328.844 1096.46 342.593 1117.76 347.457C1128.97 350.012 1153.69 355.035 1180.37 359.936Z" fill="url(#paint81_linear_11427_20836)"/>
<path opacity="0.12" d="M1732.43 483.253C1732.43 483.253 1712.99 475.675 1688.15 469.357C1663.31 463.038 1669.79 460.166 1638.5 457.978C1607.2 455.791 1574.12 450.144 1548.91 448.115C1523.71 446.087 1486.3 437.776 1457.17 432.044C1428.03 426.3 1405.36 420.556 1364.34 410.228C1323.33 399.889 1323.33 403.335 1301.73 403.91C1280.13 404.484 1267.2 405.059 1228.32 398.826C1189.47 392.593 1188.39 386.69 1171.11 378.648C1153.83 370.606 1138.74 366.585 1120.38 365.436C1102.02 364.287 1073.97 360.266 1046.97 365.436C1019.99 370.606 1002.72 369.457 962.784 376.35C922.85 383.243 899.093 382.669 858.08 382.094C817.067 381.52 809.508 379.222 777.134 375.201C744.76 371.18 733.961 368.308 689.708 367.856C645.456 367.404 646.536 368.883 626.018 368.895C605.5 368.895 604.42 366.023 579.605 369.848C554.768 373.674 526.713 376.35 509.435 376.35C492.157 376.35 481.381 373.478 460.863 374.052C440.345 374.627 437.105 372.329 418.77 369.848C400.412 367.367 384.236 370.606 358.319 369.848C332.402 369.09 318.386 368.308 303.267 373.478C288.149 378.648 269.814 380.371 253.615 383.818C237.417 387.264 221.242 398.166 196.404 401.331C171.566 404.484 166.19 407.356 142.432 415.398C118.675 423.44 89.5405 431.47 58.2466 433.767C26.9527 436.065 9.21484 433.767 9.21484 433.767V483.265H1732.45L1732.43 483.253Z" fill="white"/>
<path opacity="0.12" d="M1732.42 278.002V294.538C1702.62 293.622 1673.44 283.502 1635.39 286.875C1597.35 290.249 1597.35 293.622 1570.83 297.863C1544.32 302.103 1539.12 298.523 1524.72 297.887C1510.29 297.252 1505.12 307.42 1481.47 310.488C1457.83 313.555 1429.02 314.472 1407.7 312.321C1386.35 310.182 1374.24 306.503 1362.14 305.88C1350.05 305.269 1326.41 306.503 1308.53 311.404C1290.66 316.317 1275.1 317.845 1265.86 321.829C1256.65 325.813 1254.35 327.659 1237.05 331.338C1219.75 335.016 1222.07 334.711 1206.49 340.247C1190.94 345.784 1175.04 348.57 1175.04 348.57C1145.01 340.284 1122.49 332.132 1082.74 326.095C1051.36 321.316 1028.98 313.763 1002.03 306.076L1002.6 305.501C1023 310.084 1044.53 314.227 1064.64 316.501C1118.63 322.611 1158.84 317.723 1189.86 309.168C1220.88 300.612 1262.23 298.779 1292.1 301.224C1321.97 303.668 1347.25 298.779 1373.67 301.224C1400.09 303.668 1444.9 308.557 1485.11 298.168C1525.31 287.78 1554.03 284.113 1594.24 278.614C1634.45 273.114 1631.01 270.058 1660.88 268.836C1690.74 267.614 1710.92 278.002 1732.42 278.002Z" fill="url(#paint82_linear_11427_20836)"/>
<path d="M4.59766 268.174C4.59766 268.174 37.5689 280.127 99.3755 279.773C161.182 279.431 196.014 271.059 231.973 272C267.931 272.953 319.444 271.095 345.66 270.277C371.876 269.458 401.838 264.117 439.312 270.277C476.764 276.436 507.621 273.491 548.864 286.165C590.107 298.851 624.02 300.525 659.978 302.175C695.936 303.825 706.942 303.238 732.79 309.263C758.662 315.289 807.188 326.239 859.253 332.717C911.317 339.194 942.542 335.21 978.891 336.2C1015.24 337.202 1047.09 342.176 1075.19 346.16C1103.29 350.145 1106.92 355.082 1129.57 355.131C1152.23 355.168 1179.98 365.568 1205.78 369.822C1231.59 374.062 1263.43 378.548 1308.37 384.023C1353.32 389.498 1410.46 404.445 1445.11 411.913C1479.75 419.38 1500.36 424.868 1531.27 429.353C1562.17 433.838 1586.53 437.248 1627.72 441.77C1668.92 446.292 1686.13 456.534 1739.34 465.602" stroke="url(#paint83_linear_11427_20836)" stroke-width="0.3" stroke-miterlimit="10"/>
<path d="M0 281.387C0 281.387 23.2751 289.319 73.2489 288.146C123.2 286.96 181.238 288.5 222.044 284.834C262.828 281.167 315.191 280.727 352.275 279.786C389.359 278.845 429.729 281.669 456.979 282.866C484.252 284.064 510.514 291.654 554.651 299.463C598.789 307.273 665.076 312.21 696.83 313.799C728.583 315.388 775.961 327.573 830.254 335.114C884.547 342.654 910.74 340.186 950.536 342.007C990.354 343.828 1009.77 348.594 1065.42 351.723" stroke="url(#paint84_linear_11427_20836)" stroke-width="0.3" stroke-miterlimit="10"/>
<path d="M0 302.187C0 302.187 22.1952 298.349 77.063 300.769C131.931 303.189 157.435 298.007 192.681 299.437C227.926 300.867 272.639 291.444 315.191 292.678C357.72 293.9 386.395 297.359 430.969 297.371C475.544 297.384 497.762 305.56 542.773 304.961C587.784 304.35 606.716 312.563 663.836 318.906C720.955 325.237 722.242 326.398 763.577 331.042C804.934 335.686 856.562 348.079 909.822 348.555C963.081 349.032 1016.75 351.684 1034.63 353.261" stroke="url(#paint85_linear_11427_20836)" stroke-width="0.3" stroke-miterlimit="10"/>
<path d="M0 315.655C0 315.655 36.7853 318.783 90.3434 317.378C143.902 315.972 192.313 314.225 229.19 312.196C266.067 310.167 292.26 313.724 339.155 310.497C386.05 307.271 447.26 312.269 478.829 314.127C510.399 315.985 528.206 320.616 566.209 322.939C604.212 325.261 629.279 326.422 670.2 329.331C711.121 332.227 751.353 337.886 779.775 342.017C808.197 346.147 861.64 352.295 885.627 353.285C909.615 354.275 951.317 357.342 978.889 356.328" stroke="url(#paint86_linear_11427_20836)" stroke-width="0.3" stroke-miterlimit="10"/>
<path d="M0 332.973C0 332.973 51.7659 334.538 107.116 330.468C162.466 326.41 198.861 320.593 229.213 322.927C259.542 325.249 282.449 324.761 330.447 322.39C378.445 320.019 407.901 316.535 441.699 322.927C475.521 329.319 515.04 333.157 544.358 332.973C573.676 332.79 636.149 330.468 663.813 336.86C691.476 343.24 736.74 338.595 767 344.987C797.26 351.367 822.35 356.39 855.069 358.81C887.787 361.23 907.478 361.083 943.436 364.053" stroke="url(#paint87_linear_11427_20836)" stroke-width="0.3" stroke-miterlimit="10"/>
<path d="M0 345.561C0 345.561 29.4099 348.457 85.0358 345.561C140.662 342.664 177.08 336.272 210.143 337.433C243.206 338.594 275.924 338.313 303.197 337.299C330.47 336.272 382.811 329.612 426.443 337.299C470.075 344.986 486.182 340.77 524.483 342.004C562.785 343.239 580.753 340.183 607.75 342.004C634.77 343.825 651.038 345.817 687.065 346.844C723.115 347.871 734.557 352.967 767 356.511C799.443 360.056 835.171 366.118 872.393 370.053" stroke="url(#paint88_linear_11427_20836)" stroke-width="0.3" stroke-miterlimit="10"/>
<path d="M0 370.054C0 370.054 49.0317 368.55 94.8468 362.855C140.662 357.16 178.32 350.414 215.657 348.568C252.994 346.71 283.552 341.345 320.636 342.005C357.72 342.665 387.475 346.759 430.946 349.937C474.418 353.102 486.963 353.445 536.316 353.273C585.67 353.102 618.917 344.926 650.831 354.532" stroke="url(#paint89_linear_11427_20836)" stroke-width="0.3" stroke-miterlimit="10"/>
<path d="M0 389.646C0 389.646 46.849 390.807 85.0358 380.357C123.223 369.908 159.204 360.949 185.374 359.923C211.544 358.896 224.526 362.514 243.435 358.48" stroke="url(#paint90_linear_11427_20836)" stroke-width="0.3" stroke-miterlimit="10"/>
<path d="M364.799 352.797C364.799 352.797 426.445 358.052 453.718 359.934C480.991 361.804 513.709 365.031 579.146 359.934" stroke="url(#paint91_linear_11427_20836)" stroke-width="0.3" stroke-miterlimit="10"/>
<path d="M1183.27 346.87C1183.27 346.87 1199.19 346.234 1217.09 342.006C1234.96 337.777 1246.71 337.3 1263.57 332.974C1280.41 328.66 1297.55 325.519 1313.93 322.928C1330.32 320.337 1348.28 315.216 1367.24 317.379C1386.2 319.542 1407.06 321.131 1426.43 321.131C1445.8 321.131 1476.33 320.52 1497.19 316.866C1518.06 313.212 1521.78 318.125 1544.87 315.668C1567.96 313.212 1598.52 304.265 1626.83 304.779C1655.13 305.292 1670.05 309.288 1686.43 307.48C1702.81 305.671 1711.77 301.907 1739.32 304.974" stroke="url(#paint92_linear_11427_20836)" stroke-width="0.3" stroke-miterlimit="10"/>
<path d="M1739.32 318.907C1719.22 317.098 1698.33 320.324 1673.61 321.119C1648.89 321.913 1626.07 319.53 1598.18 322.915C1570.28 326.301 1552.32 325.079 1526.24 327.853C1500.16 330.627 1476.33 328.647 1453.22 329.454C1430.13 330.273 1398.1 332.998 1371.26 330.224C1344.45 327.45 1327.31 332.998 1304.22 333.634C1281.12 334.269 1246.11 344.095 1223.02 346.857C1199.93 349.62 1175.02 348.556 1175.02 348.556C1175.02 348.556 1199.19 347.175 1219.3 344.413C1239.38 341.651 1261.04 335.345 1282.2 332.326C1303.37 329.307 1338.34 321.742 1356.19 322.915C1374.04 324.089 1407.06 326.02 1430.79 325.323C1454.53 324.639 1488.05 324.211 1511.79 322.915C1535.52 321.62 1561.32 321.681 1583.49 318.357C1605.69 315.032 1614.44 311.268 1638.18 312.735C1661.91 314.201 1679.97 315.277 1700.1 313.774C1720.23 312.283 1739.32 312.405 1739.32 312.405" stroke="url(#paint93_linear_11427_20836)" stroke-width="0.3" stroke-miterlimit="10"/>
<path d="M1192.74 353.274C1192.74 353.274 1224.54 354.594 1244.64 351.734C1264.74 348.875 1284.87 352.248 1305.73 348.777C1326.6 345.306 1339.35 346.467 1367.24 346.883C1395.14 347.298 1410.05 340.698 1427.16 342.018C1444.31 343.338 1467.4 343.473 1492.72 342.018C1518.04 340.564 1541.89 335.797 1566.47 338.572C1591.06 341.346 1613.3 339.244 1640.18 337.716C1667.04 336.189 1669.29 337.655 1689.4 337.716C1709.5 337.777 1741.62 333.646 1741.62 333.646" stroke="url(#paint94_linear_11427_20836)" stroke-width="0.3" stroke-miterlimit="10"/>
<path d="M1219.31 359.934C1219.31 359.934 1248.93 361.095 1263.54 359.934C1278.16 358.773 1292.31 360.019 1316.16 358.797C1340.01 357.575 1369.81 357.991 1398.12 355.998C1426.42 354.006 1452.09 353.921 1478.74 353.566C1505.39 353.212 1532.21 348.494 1550.11 351.843C1567.98 355.192 1588.11 358.431 1619.38 358.797C1650.67 359.164 1670.04 359.75 1690.91 360.447C1711.77 361.144 1752 362.855 1752 362.855" stroke="url(#paint95_linear_11427_20836)" stroke-width="0.3" stroke-miterlimit="10"/>
<path d="M1276.67 366.498C1276.67 366.498 1313.91 367.488 1342.98 366.498C1372.04 365.508 1386.19 369.419 1421.21 369.847C1456.23 370.274 1482.54 367.097 1508.87 372.645C1535.2 378.194 1546.36 375.029 1585.1 376.605C1623.84 378.194 1643.97 380.565 1676.73 381.359C1709.52 382.154 1751.98 386.517 1751.98 386.517" stroke="url(#paint96_linear_11427_20836)" stroke-width="0.3" stroke-miterlimit="10"/>
<path d="M1350.42 373.83C1350.42 373.83 1394.37 378.584 1424.17 378.988C1453.97 379.379 1482.53 386.907 1508.84 386.516C1535.17 386.125 1565.04 388.899 1598.15 390.476C1631.26 392.065 1652.86 397.87 1677.44 400.705C1702.03 403.553 1741.57 404.739 1741.57 404.739" stroke="url(#paint97_linear_11427_20836)" stroke-width="0.3" stroke-miterlimit="10"/>
<path d="M1438.72 389.281C1438.72 389.281 1478.08 392.85 1508.87 395.221C1539.66 397.604 1568.72 404.338 1595.53 404.729C1622.35 405.12 1645.44 411.867 1670.02 413.443C1694.61 415.032 1718.6 422.157 1741.62 420.972" stroke="url(#paint98_linear_11427_20836)" stroke-width="0.3" stroke-miterlimit="10"/>
<path d="M1209.99 357.858C1209.99 357.858 1235.79 357.858 1251.26 356.758C1266.74 355.658 1276.53 353.409 1296.15 353.568C1315.75 353.739 1328.14 351.625 1347.74 351.723C1367.33 351.808 1394.1 352.187 1408.62 349.926C1423.14 347.665 1465.88 349.975 1480.86 348.557C1495.82 347.14 1522.13 347.421 1534.01 344.952C1545.86 342.483 1575.71 349.425 1598.2 348.557C1620.7 347.69 1643.37 348.997 1669.71 348.753C1696.01 348.508 1716.14 350.647 1737.3 348.753" stroke="url(#paint99_linear_11427_20836)" stroke-width="0.3" stroke-miterlimit="10"/>
<path d="M1184.55 351.136C1184.55 351.136 1213.6 350.659 1229.59 348.765C1245.58 346.87 1273.45 345.001 1294.08 343.607C1314.72 342.214 1339.99 338.364 1361.15 338.645C1382.31 338.914 1399.34 336.727 1425.65 336.995C1451.95 337.264 1478.79 336.727 1500.46 335.895C1522.12 335.077 1566.91 328.489 1590.18 331.227C1613.46 333.977 1632.02 330.958 1650.08 330.408C1668.14 329.858 1692.91 331.508 1708.37 329.589C1723.83 327.67 1737.25 329.589 1737.25 329.589" stroke="url(#paint100_linear_11427_20836)" stroke-width="0.3" stroke-miterlimit="10"/>
<path d="M1255.21 364.531C1255.21 364.531 1280.14 361.831 1294.59 362.869C1309.04 363.896 1325.03 363.285 1345.67 362.637C1366.3 361.977 1393.64 363.297 1420.98 362.637C1448.32 361.977 1466.89 361.293 1489.08 362.869C1511.28 364.446 1532.42 366.047 1561.83 366.34C1591.24 366.646 1607.23 368.65 1639.21 369.848C1671.2 371.033 1741.6 373.844 1741.6 373.844" stroke="url(#paint101_linear_11427_20836)" stroke-width="0.3" stroke-miterlimit="10"/>
<path d="M1320.92 371.021C1320.92 371.021 1363.68 368.821 1380.72 371.021C1397.77 373.221 1413.1 373.612 1438.72 373.819C1464.34 374.039 1476.21 378.696 1500.96 379.527C1525.71 380.358 1544.82 383.096 1572.67 383.646C1600.54 384.196 1628.39 386.139 1658.83 389.28C1689.27 392.421 1717.65 393.545 1739.32 396.686" stroke="url(#paint102_linear_11427_20836)" stroke-width="0.3" stroke-miterlimit="10"/>
<path d="M1407.81 384.097C1407.81 384.097 1429.25 383.926 1443.7 385.294C1458.16 386.663 1473.62 388.325 1496.32 389.279C1519.02 390.232 1539.65 392.42 1565.46 394.62C1591.26 396.819 1601.57 398.188 1622.21 399.557C1642.84 400.926 1656.26 404.495 1682.57 407.244C1708.87 409.994 1719.19 410.532 1739.32 413.551" stroke="url(#paint103_linear_11427_20836)" stroke-width="0.3" stroke-miterlimit="10"/>
<path d="M1498.41 399.521C1498.41 399.521 1522.47 400.854 1546.02 404.74C1569.57 408.627 1581.89 406.427 1598.18 409.177C1614.47 411.926 1623.24 413.564 1648.52 416.033C1673.79 418.502 1674.83 419.932 1695.46 423.06C1716.09 426.189 1720.73 430.577 1737.25 430.858" stroke="url(#paint104_linear_11427_20836)" stroke-width="0.3" stroke-miterlimit="10"/>
<path d="M1209.99 338.987C1209.99 338.987 1235.43 335.076 1255.21 331.508C1274.99 327.939 1284.27 323.344 1312.15 318.369C1340.02 313.395 1353.94 310.462 1370.44 312.747C1386.96 315.045 1425.4 317.893 1461.29 317.367C1497.17 316.842 1495.29 310.364 1523.14 309.276C1551.01 308.177 1553.67 307.932 1580.19 303.801C1606.7 299.67 1624.76 291.824 1651.6 295.466C1678.44 299.12 1697 297.458 1708.35 297.874C1719.7 298.289 1741.6 299.45 1741.6 299.45" stroke="url(#paint105_linear_11427_20836)" stroke-width="0.3" stroke-miterlimit="10"/>
<path d="M1241.35 362.77C1241.35 362.77 1266.21 359.544 1289.44 359.935C1312.65 360.326 1337.95 360.913 1360.12 359.935C1382.31 358.957 1425.99 355.107 1458.32 356.757C1490.65 358.407 1507.15 359.813 1534.49 359.935C1561.83 360.045 1578.88 362.245 1617.82 364.164C1656.77 366.082 1682.04 365.801 1705.25 366.498C1728.45 367.195 1746.51 369.847 1746.51 369.847" stroke="url(#paint106_linear_11427_20836)" stroke-width="0.3" stroke-miterlimit="10"/>
<path d="M0 147.278C0 147.278 15.4861 147.999 48.7331 147.278C81.98 146.557 137.606 139.224 186.454 148.842C235.302 158.461 255.291 157.275 287.688 167.431C320.085 177.587 358.754 193.903 394.046 204.695C429.315 215.487 438.827 212.676 467.318 216.965C495.809 221.255 517.82 221.255 548.884 231.534C579.949 241.824 601.707 254.755 650.854 265.07C700.024 275.385 736.993 275.385 789.057 278.269C841.122 281.153 853.989 280.334 890.292 286.519C926.594 292.703 951.202 298.117 978.912 304.973C1006.62 311.83 1021.05 317.561 1056.57 325.334C1092.12 333.107 1106.36 333.205 1135.52 342.005C1164.7 350.792 1179.01 353.31 1263.54 367.866C1348.07 382.422 1413.58 388.471 1450.25 396.696C1486.92 404.922 1495.97 411.057 1530.12 417.559C1564.26 424.048 1600.91 422.973 1627.35 426.945C1653.8 430.917 1690.52 437.541 1711.47 441.806C1732.42 446.072 1746.53 447.514 1746.53 447.514" stroke="url(#paint107_linear_11427_20836)" stroke-width="0.3" stroke-miterlimit="10"/>
<path d="M0 154.527C0 154.527 15.1645 153.953 46.5962 154.527C78.051 155.102 107.3 150.568 126.049 153.342C144.798 156.116 170.118 151.313 190.521 154.576C210.901 157.839 225.399 164.036 246.399 167.421C267.4 170.807 284.081 175.426 305.265 181.488C326.449 187.538 351.379 199.43 382.88 207.484C414.38 215.538 416.31 216.271 441.332 219.827C466.353 223.384 480.966 223.091 507.044 227.674C533.123 232.257 550.7 242.89 579.121 251.396C607.566 259.902 639.733 266.624 666.983 270.95C694.211 275.277 709.766 279.2 740.186 283.209C770.607 287.217 794.25 285.274 830.254 288.122C866.235 290.969 912.234 292.118 943.482 300.759C974.707 309.4 1003.04 321.572 1026.43 326.241" stroke="url(#paint108_linear_11427_20836)" stroke-width="0.3" stroke-miterlimit="10"/>
<path d="M0 160.427C0 160.427 20.9315 159.95 45.9759 160.427C70.9972 160.903 87.0578 160.292 115.296 160.427C143.534 160.561 155.344 162.468 175.77 164.081C196.173 165.694 215.174 170.473 238.725 174.567C262.276 178.661 273.328 184.699 293.478 189.539C313.629 194.378 334.813 201.357 358.57 207.419C382.328 213.493 383.592 217.954 410.566 223.062C437.518 228.171 491.903 230.42 503.23 235.785" stroke="url(#paint109_linear_11427_20836)" stroke-width="0.3" stroke-miterlimit="10"/>
<path d="M4.59766 168.53C4.59766 168.53 20.5433 167.454 52.5036 167.418C84.4868 167.393 83.4758 166.843 126.35 167.968C169.201 169.092 179.173 170.852 210.145 175.606C241.094 180.36 249.894 184.528 272.779 190.981C295.663 197.434 307.726 198.24 325.441 203.3C343.156 208.36 345.384 211.88 364.799 216.952C384.238 222.024 388.718 225.495 405.399 228.025C422.08 230.554 454.247 231.789 470.905 235.785" stroke="url(#paint110_linear_11427_20836)" stroke-width="0.3" stroke-miterlimit="10"/>
<path d="M4.59766 174.568C4.59766 174.568 21.1637 173.59 52.5036 175.619C83.8434 177.647 102.454 173.675 138.39 177.709C174.325 181.742 180.459 178.087 210.122 184.015C239.785 189.93 237.992 196.346 264.232 201.333C290.494 206.319 295.617 206.344 328.359 214.349C361.1 222.366 368.453 230.31 408.73 235.211" stroke="url(#paint111_linear_11427_20836)" stroke-width="0.3" stroke-miterlimit="10"/>
<path d="M4.59766 184.016C4.59766 184.016 16.4535 184.236 48.5286 184.016C80.6267 183.796 101.535 186.18 126.051 185.837C150.567 185.495 167.914 192.327 186.525 192.669C205.136 193.011 223.471 201.872 246.402 204.781C269.332 207.69 280.246 212.908 307.198 216.966C334.149 221.023 346.257 233.159 382.882 237.156" stroke="url(#paint112_linear_11427_20836)" stroke-width="0.3" stroke-miterlimit="10"/>
<path d="M0 194.026C0 194.026 15.8078 194.368 57.5101 194.026C99.2353 193.684 111.045 195.481 144.935 197.998C178.826 200.516 179.469 204.085 212.831 207.421C246.216 210.758 255.981 213.886 287.665 219.838C319.373 225.79 332.217 235.726 357.238 238.769" stroke="url(#paint113_linear_11427_20836)" stroke-width="0.3" stroke-miterlimit="10"/>
<path d="M4.59766 204.683C4.59766 204.683 32.4911 207.824 66.4962 204.683C100.524 201.542 96.963 207.653 126.327 210.574C155.714 213.495 168.535 213.507 198.703 214.35C228.871 215.194 258.097 219.813 270.435 226.217" stroke="url(#paint114_linear_11427_20836)" stroke-width="0.3" stroke-miterlimit="10"/>
<path d="M4.59766 214.35C4.59766 214.35 26.0806 217.564 58.1558 216.378C90.2539 215.193 81.9594 218.297 112.426 218.627C142.893 218.957 164.698 217.613 184.595 218.627C204.493 219.642 234.293 224.176 237.027 224.225" stroke="url(#paint115_linear_11427_20836)" stroke-width="0.3" stroke-miterlimit="10"/>
<path d="M4.59766 114.843C4.59766 114.843 98.4794 113.01 190.385 122.176C282.291 131.342 354.667 152.119 392.578 171.062C430.489 190.006 455.763 202.839 517.8 217.505C579.836 232.17 593.622 240.726 625.789 255.392C657.956 270.057 759.052 271.891 794.666 272.502C830.279 273.113 895.762 279.835 921.036 285.334C946.31 290.834 1010.64 310.389 1064.64 316.5C1118.63 322.61 1158.84 317.722 1189.86 309.167C1220.88 300.611 1262.24 298.778 1292.11 301.223C1321.98 303.667 1347.25 298.778 1373.67 301.223C1400.1 303.667 1444.9 308.556 1485.11 298.167C1525.32 287.779 1554.04 284.112 1594.25 278.613C1634.45 273.113 1631.01 270.057 1660.88 268.835C1690.75 267.613 1720.11 278.001 1741.62 278.001" stroke="url(#paint116_linear_11427_20836)" stroke-width="2" stroke-miterlimit="10"/>
<path d="M4.59766 222.504C4.59766 222.504 20.9339 225.938 51.3547 227.05C81.7755 228.163 211.087 222.198 253.685 224.777C296.284 227.356 325.188 237.072 343.431 238.685C361.675 240.299 416.451 233.027 434.694 234.64C452.937 236.253 492.503 237.072 503.141 234.64C513.779 232.208 522.923 241.117 544.223 245.969C565.522 250.821 597.459 262.151 637.024 266.196C676.59 270.242 685.712 275.094 708.527 285.616C731.343 296.139 781.546 294.514 828.694 295.32C875.842 296.127 926.39 300.979 957.408 310.695C988.426 320.399 1008.19 326.07 1038.63 326.876C1069.05 327.683 1096.44 341.445 1117.74 346.297C1139.04 351.149 1209 364.91 1248.57 369.762C1288.11 374.614 1320.07 379.466 1362.67 387.569C1405.26 395.66 1425.05 398.092 1450.9 403.75C1476.77 409.409 1482.83 415.886 1510.22 419.932C1537.61 423.977 1568.03 427.216 1601.48 431.261C1634.96 435.307 1660.81 436.92 1689.71 446.636C1718.62 456.34 1741.62 457.965 1741.62 457.965" stroke="url(#paint117_linear_11427_20836)" stroke-width="2" stroke-miterlimit="10"/>
<path d="M4.59766 257.299C4.59766 257.299 25.4833 266.196 83.292 269.435C141.101 272.673 150.222 269.435 198.91 263.361C247.597 257.286 247.597 264.228 276.501 263.996C305.405 263.764 366.247 258.093 404.273 257.286C442.299 256.48 445.355 260.99 472.72 263.996C500.108 267.003 518.351 267.809 541.167 275.093C563.982 282.377 598.976 291.275 630.913 294.513C662.85 297.752 711.537 295.565 722.175 297.874C732.813 300.184 770.862 313.982 814.977 319.213C859.092 324.456 886.48 329.308 916.901 330.115C947.322 330.922 1005.13 330.115 1034.03 334.16C1062.94 338.206 1121.53 349.034 1180.37 358.787" stroke="url(#paint118_linear_11427_20836)" stroke-width="2" stroke-miterlimit="10"/>
<path d="M4.59766 407.345C4.59766 407.345 19.3715 406.196 26.9308 403.324C34.49 400.452 50.6884 398.154 76.5829 395.282C102.5 392.41 108.957 386.091 127.315 381.508C145.673 376.913 194.245 368.871 224.459 362.565C254.673 356.246 279.511 349.928 294.629 349.928C309.748 349.928 345.361 351.077 364.799 352.8C384.238 354.523 401.493 359.118 433.89 363.714C466.263 368.309 481.382 371.377 507.299 369.837C533.217 368.297 583.949 358.483 602.284 358.801C620.642 359.118 624.962 356.246 650.856 354.523C676.751 352.8 698.349 355.611 725.346 358.801C752.343 361.99 787.957 369.653 814.931 369.837C841.905 370.02 881.861 370.228 901.277 369.837C920.715 369.446 940.13 364.288 952.009 362.565C963.887 360.842 969.287 355.672 990.862 355.672C1012.44 355.672 1029.71 353.374 1049.15 352.225C1068.59 351.077 1083.69 351.651 1105.28 356.246C1126.88 360.842 1136.58 359.118 1153.86 363.139C1171.13 367.16 1187.31 375.202 1213.23 378.636C1239.12 382.083 1244.52 384.955 1263.96 386.678C1283.4 388.401 1306.05 389.55 1335.21 393.571C1364.34 397.592 1376.22 403.336 1404.3 410.217C1432.35 417.11 1448.55 421.705 1479.87 426.863C1511.16 432.032 1517.64 435.479 1536 438.351C1554.36 441.223 1580.25 451.477 1580.25 451.477" stroke="url(#paint119_linear_11427_20836)" stroke-width="2" stroke-miterlimit="10"/>
<path d="M4.59766 433.756C4.59766 433.756 26.9308 436.053 58.2247 433.756C89.5186 431.458 118.676 423.416 142.41 415.386C166.168 407.345 171.545 404.473 196.382 401.319C221.22 398.166 237.395 387.252 253.593 383.806C269.792 380.359 288.127 378.636 303.246 373.466C318.364 368.297 332.38 369.067 358.297 369.837C384.192 370.594 400.39 367.356 418.748 369.837C437.106 372.318 440.346 374.615 460.841 374.041C481.359 373.466 492.135 376.338 509.413 376.338C526.691 376.338 554.746 373.662 579.583 369.837C604.421 366.011 605.478 368.895 625.996 368.883C646.514 368.883 645.434 367.392 689.686 367.844C733.939 368.297 744.738 371.169 777.112 375.19C809.486 379.21 817.045 381.508 858.058 382.083C899.071 382.657 922.828 383.231 962.762 376.338C1002.69 369.445 1019.97 370.594 1046.95 365.424C1073.92 360.255 1102 364.276 1120.36 365.424C1138.72 366.573 1153.81 370.594 1171.09 378.636C1188.37 386.678 1189.45 392.581 1228.3 398.814C1267.15 405.047 1280.11 404.473 1301.71 403.898C1323.31 403.324 1323.31 399.877 1364.32 410.217C1405.33 420.556 1428.01 426.288 1457.15 432.032C1486.28 437.776 1523.69 446.075 1548.89 448.104C1574.1 450.132 1607.18 455.779 1638.48 457.967C1669.77 460.154 1663.31 463.026 1688.13 469.345C1712.97 475.663 1741.59 483.241 1741.59 483.241" stroke="url(#paint120_linear_11427_20836)" stroke-width="2" stroke-miterlimit="10"/>
<path d="M1175.04 348.57C1175.04 348.57 1190.94 345.784 1206.51 340.247C1222.07 334.711 1219.77 335.017 1237.07 331.338C1254.37 327.659 1256.67 325.814 1265.89 321.83C1275.1 317.845 1290.68 316.305 1308.55 311.404C1326.43 306.504 1350.05 305.269 1362.16 305.88C1374.27 306.491 1386.37 310.17 1407.7 312.321C1429.02 314.472 1457.85 313.543 1481.47 310.476C1505.12 307.408 1510.29 297.24 1524.72 297.875C1539.12 298.511 1544.31 302.092 1570.83 297.851C1597.34 293.61 1597.34 290.237 1635.39 286.863C1673.44 283.49 1711.81 293.61 1741.61 294.526" stroke="url(#paint121_linear_11427_20836)" stroke-width="2" stroke-miterlimit="10"/>
<path d="M970.779 297.887C1014.16 308.018 1040.15 319.617 1082.74 326.082C1125.34 332.559 1148.16 341.457 1181.61 350.354C1215.06 359.251 1224.21 360.877 1265.27 365.729C1306.35 370.581 1335.25 371.387 1371.76 377.865C1408.27 384.342 1434.15 388.388 1485.87 397.285C1537.59 406.182 1542.16 410.228 1572.58 415.092C1603 419.944 1622.78 419.137 1659.29 423.989C1695.8 428.841 1712.85 438.557 1741.64 441.796" stroke="url(#paint122_linear_11427_20836)" stroke-width="2" stroke-miterlimit="10"/>
<path opacity="0.3" d="M1392.49 277.259C1392.49 277.259 1392.49 277.271 1392.46 277.295C1380.72 279.092 1368.02 280.448 1353.98 281.267C1327.49 282.819 1324.55 284.09 1308.67 286.523C1292.77 288.955 1299.82 291.607 1278.06 291.289C1256.28 290.983 1263.93 292.548 1247.46 291.289C1230.96 290.042 1223.91 286.278 1212.72 284.714C1201.55 283.149 1196.84 285.031 1188 282.844C1179.17 280.644 1158.89 281.389 1158.89 281.389C1157.25 280.644 1155.39 279.874 1153.26 279.043C1138.48 273.397 1129.64 273.397 1114.27 269.62C1105.58 267.494 1098.02 265.453 1090.21 263.155C1105.76 226.942 1150.74 178.53 1244.19 179.601C1309.74 180.353 1388.47 234.19 1392.49 277.259Z" fill="url(#paint123_linear_11427_20836)"/>
<defs>
<linearGradient id="paint0_linear_11427_20836" x1="1158.73" y1="259.879" x2="1741.96" y2="259.879" gradientUnits="userSpaceOnUse">
<stop stop-color="white"/>
<stop offset="1" stop-color="#ADADAD"/>
</linearGradient>
<linearGradient id="paint1_linear_11427_20836" x1="4.32194" y1="181.417" x2="555.78" y2="181.417" gradientUnits="userSpaceOnUse">
<stop stop-color="#F0F0F0"/>
<stop offset="1" stop-color="#AAAAAA"/>
</linearGradient>
<linearGradient id="paint2_linear_11427_20836" x1="9.19148" y1="69.7933" x2="293.456" y2="69.7933" gradientUnits="userSpaceOnUse">
<stop stop-color="white"/>
<stop offset="1" stop-color="#B4B4B4"/>
</linearGradient>
<linearGradient id="paint3_linear_11427_20836" x1="229.602" y1="96.6708" x2="536.153" y2="96.6708" gradientUnits="userSpaceOnUse">
<stop stop-color="white"/>
<stop offset="1" stop-color="#B4B4B4"/>
</linearGradient>
<linearGradient id="paint4_linear_11427_20836" x1="8.8023" y1="55.4961" x2="234.684" y2="55.4961" gradientUnits="userSpaceOnUse">
<stop stop-color="#EFEFEF"/>
<stop offset="1" stop-color="#A2A2A2"/>
</linearGradient>
<linearGradient id="paint5_linear_11427_20836" x1="52.1847" y1="73.8524" x2="232.343" y2="73.8524" gradientUnits="userSpaceOnUse">
<stop stop-color="#EFEFEF"/>
<stop offset="1" stop-color="#A5A5A5"/>
</linearGradient>
<linearGradient id="paint6_linear_11427_20836" x1="126.005" y1="86.808" x2="255.5" y2="86.808" gradientUnits="userSpaceOnUse">
<stop stop-color="#EEEEEE"/>
<stop offset="1" stop-color="#A8A8A8"/>
</linearGradient>
<linearGradient id="paint7_linear_11427_20836" x1="192.385" y1="101.473" x2="285.21" y2="101.473" gradientUnits="userSpaceOnUse">
<stop stop-color="#DDDDDD"/>
<stop offset="1" stop-color="#969696"/>
</linearGradient>
<linearGradient id="paint8_linear_11427_20836" x1="254.514" y1="121.834" x2="285.279" y2="121.834" gradientUnits="userSpaceOnUse">
<stop stop-color="#EEEEEE"/>
<stop offset="1" stop-color="#B6B6B6"/>
</linearGradient>
<linearGradient id="paint9_linear_11427_20836" x1="8.77978" y1="53.5767" x2="205.504" y2="53.5767" gradientUnits="userSpaceOnUse">
<stop stop-color="#E9E9E9"/>
<stop offset="1" stop-color="#A5A5A5"/>
</linearGradient>
<linearGradient id="paint10_linear_11427_20836" x1="8.80276" y1="61.3878" x2="145.421" y2="61.3878" gradientUnits="userSpaceOnUse">
<stop stop-color="#EDEDED"/>
<stop offset="1" stop-color="#B5B5B5"/>
</linearGradient>
<linearGradient id="paint11_linear_11427_20836" x1="25.8507" y1="65.2499" x2="237.418" y2="65.2499" gradientUnits="userSpaceOnUse">
<stop stop-color="#E3E3E3"/>
<stop offset="1" stop-color="#A1A1A1"/>
</linearGradient>
<linearGradient id="paint12_linear_11427_20836" x1="90.1144" y1="80.3673" x2="243.942" y2="80.3673" gradientUnits="userSpaceOnUse">
<stop stop-color="#EFEFEF"/>
<stop offset="1" stop-color="#ADADAD"/>
</linearGradient>
<linearGradient id="paint13_linear_11427_20836" x1="159.689" y1="92.3217" x2="278.432" y2="92.3217" gradientUnits="userSpaceOnUse">
<stop stop-color="#EAEAEA"/>
<stop offset="1" stop-color="#A3A3A3"/>
</linearGradient>
<linearGradient id="paint14_linear_11427_20836" x1="221.794" y1="112.924" x2="278.408" y2="112.924" gradientUnits="userSpaceOnUse">
<stop stop-color="#ECECEC"/>
<stop offset="1" stop-color="#888888"/>
</linearGradient>
<linearGradient id="paint15_linear_11427_20836" x1="272.407" y1="128.069" x2="293.086" y2="128.069" gradientUnits="userSpaceOnUse">
<stop stop-color="#ECECEC"/>
<stop offset="1" stop-color="#989898"/>
</linearGradient>
<linearGradient id="paint16_linear_11427_20836" x1="263.861" y1="125" x2="290.215" y2="125" gradientUnits="userSpaceOnUse">
<stop stop-color="#EDEDED"/>
<stop offset="1" stop-color="#929292"/>
</linearGradient>
<linearGradient id="paint17_linear_11427_20836" x1="281.581" y1="132.957" x2="293.965" y2="132.957" gradientUnits="userSpaceOnUse">
<stop stop-color="#E9E9E9"/>
<stop offset="1" stop-color="#B2B2B2"/>
</linearGradient>
<linearGradient id="paint18_linear_11427_20836" x1="238.29" y1="117.779" x2="279.188" y2="117.779" gradientUnits="userSpaceOnUse">
<stop stop-color="#F1F1F1"/>
<stop offset="1" stop-color="#A3A3A3"/>
</linearGradient>
<linearGradient id="paint19_linear_11427_20836" x1="209.818" y1="105.898" x2="283.205" y2="105.898" gradientUnits="userSpaceOnUse">
<stop stop-color="#F2F2F2"/>
<stop offset="1" stop-color="#A2A2A2"/>
</linearGradient>
<linearGradient id="paint20_linear_11427_20836" x1="175.495" y1="96.611" x2="283.163" y2="96.611" gradientUnits="userSpaceOnUse">
<stop stop-color="#F2F2F2"/>
<stop offset="1" stop-color="#A0A0A0"/>
</linearGradient>
<linearGradient id="paint21_linear_11427_20836" x1="141.811" y1="89.5439" x2="270.181" y2="89.5439" gradientUnits="userSpaceOnUse">
<stop stop-color="#EEEEEE"/>
<stop offset="1" stop-color="#A7A7A7"/>
</linearGradient>
<linearGradient id="paint22_linear_11427_20836" x1="107.163" y1="84.6316" x2="250.375" y2="84.6316" gradientUnits="userSpaceOnUse">
<stop stop-color="#F4F4F4"/>
<stop offset="1" stop-color="#9F9F9F"/>
</linearGradient>
<linearGradient id="paint23_linear_11427_20836" x1="72.9054" y1="77.5077" x2="238.979" y2="77.5077" gradientUnits="userSpaceOnUse">
<stop stop-color="#EBEBEB"/>
<stop offset="1" stop-color="#AEAEAE"/>
</linearGradient>
<linearGradient id="paint24_linear_11427_20836" x1="39.5884" y1="71.4343" x2="231.028" y2="71.4343" gradientUnits="userSpaceOnUse">
<stop stop-color="#F2F2F2"/>
<stop offset="1" stop-color="#A3A3A3"/>
</linearGradient>
<linearGradient id="paint25_linear_11427_20836" x1="11.0035" y1="60.9094" x2="241.733" y2="60.9094" gradientUnits="userSpaceOnUse">
<stop stop-color="#ECECEC"/>
<stop offset="1" stop-color="#AAAAAA"/>
</linearGradient>
<linearGradient id="paint26_linear_11427_20836" x1="8.77978" y1="54.5661" x2="216.142" y2="54.5661" gradientUnits="userSpaceOnUse">
<stop stop-color="#F2F2F2"/>
<stop offset="1" stop-color="#A9A9A9"/>
</linearGradient>
<linearGradient id="paint27_linear_11427_20836" x1="3.03135" y1="65.2127" x2="537.854" y2="65.2127" gradientUnits="userSpaceOnUse">
<stop stop-color="#F2F2F2"/>
<stop offset="1" stop-color="#AFAFAF"/>
</linearGradient>
<linearGradient id="paint28_linear_11427_20836" x1="227.304" y1="71.1643" x2="295.751" y2="71.1643" gradientUnits="userSpaceOnUse">
<stop stop-color="#F4F4F4"/>
<stop offset="1" stop-color="#A3A3A3"/>
</linearGradient>
<linearGradient id="paint29_linear_11427_20836" x1="556.217" y1="307.68" x2="700.453" y2="129.723" gradientUnits="userSpaceOnUse">
<stop stop-color="#F0F0F0"/>
<stop offset="1" stop-color="#A6A6A6"/>
</linearGradient>
<linearGradient id="paint30_linear_11427_20836" x1="598.08" y1="206.239" x2="1239.54" y2="206.239" gradientUnits="userSpaceOnUse">
<stop stop-color="white"/>
<stop offset="1" stop-color="#B4B4B4"/>
</linearGradient>
<linearGradient id="paint31_linear_11427_20836" x1="461.253" y1="150.718" x2="608.026" y2="150.718" gradientUnits="userSpaceOnUse">
<stop stop-color="#F7F7F7"/>
<stop offset="1" stop-color="#B8B8B8"/>
</linearGradient>
<linearGradient id="paint32_linear_11427_20836" x1="494.569" y1="164.027" x2="637.551" y2="164.027" gradientUnits="userSpaceOnUse">
<stop stop-color="#F1F1F1"/>
<stop offset="1" stop-color="#A4A4A4"/>
</linearGradient>
<linearGradient id="paint33_linear_11427_20836" x1="540.566" y1="180.284" x2="654.782" y2="180.284" gradientUnits="userSpaceOnUse">
<stop stop-color="#EAEAEA"/>
<stop offset="1" stop-color="#B0B0B0"/>
</linearGradient>
<linearGradient id="paint34_linear_11427_20836" x1="573.495" y1="190.963" x2="667.261" y2="190.963" gradientUnits="userSpaceOnUse">
<stop stop-color="#EEEEEE"/>
<stop offset="1" stop-color="#A6A6A6"/>
</linearGradient>
<linearGradient id="paint35_linear_11427_20836" x1="607.289" y1="205.594" x2="697.356" y2="205.594" gradientUnits="userSpaceOnUse">
<stop stop-color="#F2F2F2"/>
<stop offset="1" stop-color="#A5A5A5"/>
</linearGradient>
<linearGradient id="paint36_linear_11427_20836" x1="636.862" y1="219.746" x2="726.815" y2="219.746" gradientUnits="userSpaceOnUse">
<stop stop-color="#F3F3F3"/>
<stop offset="1" stop-color="#ABABAB"/>
</linearGradient>
<linearGradient id="paint37_linear_11427_20836" x1="681.32" y1="231.393" x2="757.647" y2="231.393" gradientUnits="userSpaceOnUse">
<stop stop-color="#F2F2F2"/>
<stop offset="1" stop-color="#A6A6A6"/>
</linearGradient>
<linearGradient id="paint38_linear_11427_20836" x1="725.876" y1="237.503" x2="788.395" y2="237.503" gradientUnits="userSpaceOnUse">
<stop stop-color="#EEEEEE"/>
<stop offset="1" stop-color="#A7A7A7"/>
</linearGradient>
<linearGradient id="paint39_linear_11427_20836" x1="770.585" y1="245.912" x2="810.633" y2="245.912" gradientUnits="userSpaceOnUse">
<stop stop-color="#ECECEC"/>
<stop offset="1" stop-color="#A4A4A4"/>
</linearGradient>
<linearGradient id="paint40_linear_11427_20836" x1="815.503" y1="250.544" x2="847.854" y2="250.544" gradientUnits="userSpaceOnUse">
<stop stop-color="#F3F3F3"/>
<stop offset="1" stop-color="#A4A4A4"/>
<stop offset="1.0001" stop-color="#A3A3A3"/>
</linearGradient>
<linearGradient id="paint41_linear_11427_20836" x1="858.771" y1="257.742" x2="890.778" y2="257.742" gradientUnits="userSpaceOnUse">
<stop stop-color="#F5F5F5"/>
<stop offset="1" stop-color="#9F9F9F"/>
</linearGradient>
<linearGradient id="paint42_linear_11427_20836" x1="897.303" y1="261.872" x2="937.557" y2="261.872" gradientUnits="userSpaceOnUse">
<stop stop-color="#EDEDED"/>
<stop offset="1" stop-color="#A5A4A3"/>
</linearGradient>
<linearGradient id="paint43_linear_11427_20836" x1="936.636" y1="273.215" x2="977.166" y2="273.215" gradientUnits="userSpaceOnUse">
<stop stop-color="#EBEBEB"/>
<stop offset="1" stop-color="#B4B4B4"/>
</linearGradient>
<linearGradient id="paint44_linear_11427_20836" x1="1013.65" y1="300.785" x2="1035.09" y2="300.785" gradientUnits="userSpaceOnUse">
<stop stop-color="#F3F3F3"/>
<stop offset="1" stop-color="#AAAAAA"/>
</linearGradient>
<linearGradient id="paint45_linear_11427_20836" x1="1044.74" y1="309.353" x2="1057.1" y2="309.353" gradientUnits="userSpaceOnUse">
<stop stop-color="#ECECEC"/>
<stop offset="1" stop-color="#AFAFAF"/>
</linearGradient>
<linearGradient id="paint46_linear_11427_20836" x1="445.814" y1="146.221" x2="603.065" y2="146.221" gradientUnits="userSpaceOnUse">
<stop stop-color="#F1F1F1"/>
<stop offset="1" stop-color="#B3B3B3"/>
</linearGradient>
<linearGradient id="paint47_linear_11427_20836" x1="470.355" y1="154.459" x2="614.969" y2="154.459" gradientUnits="userSpaceOnUse">
<stop stop-color="#EFEFEF"/>
<stop offset="1" stop-color="#9F9F9F"/>
</linearGradient>
<linearGradient id="paint48_linear_11427_20836" x1="481.104" y1="158.589" x2="626.614" y2="158.589" gradientUnits="userSpaceOnUse">
<stop stop-color="#F1F1F1"/>
<stop offset="1" stop-color="#A8A8A8"/>
</linearGradient>
<linearGradient id="paint49_linear_11427_20836" x1="506.541" y1="167.402" x2="637.806" y2="167.402" gradientUnits="userSpaceOnUse">
<stop stop-color="#F0F0F0"/>
<stop offset="1" stop-color="#A5A5A5"/>
</linearGradient>
<linearGradient id="paint50_linear_11427_20836" x1="522.991" y1="173.329" x2="645.961" y2="173.329" gradientUnits="userSpaceOnUse">
<stop stop-color="#EEEEEE"/>
<stop offset="1" stop-color="#AAAAAA"/>
</linearGradient>
<linearGradient id="paint51_linear_11427_20836" x1="548.335" y1="184.011" x2="660.483" y2="184.011" gradientUnits="userSpaceOnUse">
<stop stop-color="#F0F0F0"/>
<stop offset="1" stop-color="#AEAEAE"/>
</linearGradient>
<linearGradient id="paint52_linear_11427_20836" x1="561.455" y1="187.7" x2="664.297" y2="187.7" gradientUnits="userSpaceOnUse">
<stop stop-color="#F0F0F0"/>
<stop offset="1" stop-color="#9B9B9B"/>
</linearGradient>
<linearGradient id="paint53_linear_11427_20836" x1="583.973" y1="195.438" x2="674.224" y2="195.438" gradientUnits="userSpaceOnUse">
<stop stop-color="#ECECEC"/>
<stop offset="1" stop-color="#AEAEAE"/>
</linearGradient>
<linearGradient id="paint54_linear_11427_20836" x1="598.488" y1="201.34" x2="687.568" y2="201.34" gradientUnits="userSpaceOnUse">
<stop stop-color="#EAEAEA"/>
<stop offset="1" stop-color="#B1B1B1"/>
</linearGradient>
<linearGradient id="paint55_linear_11427_20836" x1="616.714" y1="209.983" x2="706.208" y2="209.983" gradientUnits="userSpaceOnUse">
<stop stop-color="#EFEFEF"/>
<stop offset="1" stop-color="#B1B1B1"/>
</linearGradient>
<linearGradient id="paint56_linear_11427_20836" x1="625.33" y1="214.393" x2="715.167" y2="214.393" gradientUnits="userSpaceOnUse">
<stop stop-color="#EFEFEF"/>
<stop offset="1" stop-color="#A8A8A8"/>
</linearGradient>
<linearGradient id="paint57_linear_11427_20836" x1="648.516" y1="223.035" x2="733.208" y2="223.035" gradientUnits="userSpaceOnUse">
<stop stop-color="#F6F6F6"/>
<stop offset="1" stop-color="#ACACAC"/>
</linearGradient>
<linearGradient id="paint58_linear_11427_20836" x1="666.431" y1="228.019" x2="746.527" y2="228.019" gradientUnits="userSpaceOnUse">
<stop stop-color="#ECECEC"/>
<stop offset="1" stop-color="#B0B0B0"/>
</linearGradient>
<linearGradient id="paint59_linear_11427_20836" x1="695.798" y1="232.727" x2="761.028" y2="232.727" gradientUnits="userSpaceOnUse">
<stop stop-color="#F1F1F1"/>
<stop offset="1" stop-color="#AEAEAE"/>
</linearGradient>
<linearGradient id="paint60_linear_11427_20836" x1="714.112" y1="235.208" x2="776.125" y2="235.208" gradientUnits="userSpaceOnUse">
<stop stop-color="#EEEEEE"/>
<stop offset="1" stop-color="#ADADAD"/>
</linearGradient>
<linearGradient id="paint61_linear_11427_20836" x1="739.728" y1="239.228" x2="798.226" y2="239.228" gradientUnits="userSpaceOnUse">
<stop stop-color="#F1F1F1"/>
<stop offset="1" stop-color="#A9A9A9"/>
</linearGradient>
<linearGradient id="paint62_linear_11427_20836" x1="756.617" y1="242.393" x2="803.029" y2="242.393" gradientUnits="userSpaceOnUse">
<stop stop-color="#EFEFEF"/>
<stop offset="1" stop-color="#AAAAAA"/>
</linearGradient>
<linearGradient id="paint63_linear_11427_20836" x1="787.337" y1="247.293" x2="822.56" y2="247.293" gradientUnits="userSpaceOnUse">
<stop stop-color="#F3F3F3"/>
<stop offset="1" stop-color="#B7B7B7"/>
</linearGradient>
<linearGradient id="paint64_linear_11427_20836" x1="799.377" y1="249.066" x2="835.795" y2="249.066" gradientUnits="userSpaceOnUse">
<stop stop-color="#EDEDED"/>
<stop offset="1" stop-color="#B0B0B0"/>
</linearGradient>
<linearGradient id="paint65_linear_11427_20836" x1="829.752" y1="252.89" x2="861.896" y2="252.89" gradientUnits="userSpaceOnUse">
<stop stop-color="#EBEBEB"/>
<stop offset="1" stop-color="#AAAAAA"/>
</linearGradient>
<linearGradient id="paint66_linear_11427_20836" x1="845.284" y1="255.494" x2="875.015" y2="255.494" gradientUnits="userSpaceOnUse">
<stop stop-color="#EEEEEE"/>
<stop offset="1" stop-color="#AEAEAE"/>
</linearGradient>
<linearGradient id="paint67_linear_11427_20836" x1="872.327" y1="257.437" x2="912.742" y2="257.437" gradientUnits="userSpaceOnUse">
<stop stop-color="#EEEEEE"/>
<stop offset="1" stop-color="#ABABAB"/>
</linearGradient>
<linearGradient id="paint68_linear_11427_20836" x1="885.121" y1="259.455" x2="925.836" y2="259.455" gradientUnits="userSpaceOnUse">
<stop stop-color="#EBEBEB"/>
<stop offset="1" stop-color="#AFAFAF"/>
</linearGradient>
<linearGradient id="paint69_linear_11427_20836" x1="909.365" y1="264.564" x2="949.114" y2="264.564" gradientUnits="userSpaceOnUse">
<stop stop-color="#EFEFEF"/>
<stop offset="1" stop-color="#ADADAD"/>
</linearGradient>
<linearGradient id="paint70_linear_11427_20836" x1="925.792" y1="268.168" x2="961.107" y2="268.168" gradientUnits="userSpaceOnUse">
<stop stop-color="#F2F2F2"/>
<stop offset="1" stop-color="#AEAEAE"/>
</linearGradient>
<linearGradient id="paint71_linear_11427_20836" x1="950.032" y1="277.372" x2="984.106" y2="277.372" gradientUnits="userSpaceOnUse">
<stop stop-color="#EBEBEB"/>
<stop offset="1" stop-color="#919191"/>
</linearGradient>
<linearGradient id="paint72_linear_11427_20836" x1="960.854" y1="282.859" x2="996.904" y2="282.859" gradientUnits="userSpaceOnUse">
<stop stop-color="#EDEDED"/>
<stop offset="1" stop-color="#AAAAAA"/>
</linearGradient>
<linearGradient id="paint73_linear_11427_20836" x1="985.462" y1="291.549" x2="1015.33" y2="291.549" gradientUnits="userSpaceOnUse">
<stop stop-color="#F3F3F3"/>
<stop offset="1" stop-color="#9D9D9D"/>
</linearGradient>
<linearGradient id="paint74_linear_11427_20836" x1="998.994" y1="295.543" x2="1024.91" y2="295.543" gradientUnits="userSpaceOnUse">
<stop stop-color="#EAEAEA"/>
<stop offset="1" stop-color="#979797"/>
</linearGradient>
<linearGradient id="paint75_linear_11427_20836" x1="1026.06" y1="304.957" x2="1045.29" y2="304.957" gradientUnits="userSpaceOnUse">
<stop stop-color="#F1F1F1"/>
<stop offset="1" stop-color="#A0A0A0"/>
</linearGradient>
<linearGradient id="paint76_linear_11427_20836" x1="1038.29" y1="307.498" x2="1051.34" y2="307.498" gradientUnits="userSpaceOnUse">
<stop stop-color="#EAEAEA"/>
<stop offset="1" stop-color="#A1A1A1"/>
</linearGradient>
<linearGradient id="paint77_linear_11427_20836" x1="1057.98" y1="312.276" x2="1065.93" y2="312.276" gradientUnits="userSpaceOnUse">
<stop stop-color="#F0F0F0"/>
<stop offset="1" stop-color="#A9A9A9"/>
</linearGradient>
<linearGradient id="paint78_linear_11427_20836" x1="976.846" y1="288.176" x2="1002.56" y2="288.176" gradientUnits="userSpaceOnUse">
<stop stop-color="#E7E7E7"/>
<stop offset="1" stop-color="#9E9E9E"/>
</linearGradient>
<linearGradient id="paint79_linear_11427_20836" x1="430.559" y1="197.037" x2="1241.19" y2="197.037" gradientUnits="userSpaceOnUse">
<stop stop-color="#F0F0F0"/>
<stop offset="1" stop-color="#A4A4A4"/>
</linearGradient>
<linearGradient id="paint80_linear_11427_20836" x1="596.265" y1="206.4" x2="1096.76" y2="206.4" gradientUnits="userSpaceOnUse">
<stop stop-color="#E9E9E9"/>
<stop offset="1" stop-color="#8F8F8F"/>
</linearGradient>
<linearGradient id="paint81_linear_11427_20836" x1="9.21484" y1="291.788" x2="1180.37" y2="291.788" gradientUnits="userSpaceOnUse">
<stop stop-color="#F1F1F1"/>
<stop offset="1" stop-color="#919191"/>
</linearGradient>
<linearGradient id="paint82_linear_11427_20836" x1="1002.03" y1="308.642" x2="1732.42" y2="308.642" gradientUnits="userSpaceOnUse">
<stop stop-color="#E5E5E5"/>
<stop offset="1" stop-color="#A2A2A2"/>
</linearGradient>
<linearGradient id="paint83_linear_11427_20836" x1="4.41384" y1="366.485" x2="1739.43" y2="366.485" gradientUnits="userSpaceOnUse">
<stop stop-color="#F1F1F1"/>
<stop offset="1" stop-color="#7F7F7F"/>
</linearGradient>
<linearGradient id="paint84_linear_11427_20836" x1="-0.183812" y1="315.657" x2="1065.46" y2="315.657" gradientUnits="userSpaceOnUse">
<stop stop-color="#EBEBEB"/>
<stop offset="1" stop-color="#9B9B9B"/>
</linearGradient>
<linearGradient id="paint85_linear_11427_20836" x1="-0.114882" y1="322.927" x2="1034.68" y2="322.927" gradientUnits="userSpaceOnUse">
<stop stop-color="#E8E8E8"/>
<stop offset="1" stop-color="#9F9F9F"/>
</linearGradient>
<linearGradient id="paint86_linear_11427_20836" x1="-0.0459529" y1="332.973" x2="978.912" y2="332.973" gradientUnits="userSpaceOnUse">
<stop stop-color="#EBEBEB"/>
<stop offset="1" stop-color="#8D8D8D"/>
</linearGradient>
<linearGradient id="paint87_linear_11427_20836" x1="-0.0229765" y1="341.663" x2="943.528" y2="341.663" gradientUnits="userSpaceOnUse">
<stop stop-color="#E9E9E9"/>
<stop offset="1" stop-color="#9E9E9E"/>
</linearGradient>
<linearGradient id="paint88_linear_11427_20836" x1="-0.0689294" y1="351.843" x2="872.485" y2="351.843" gradientUnits="userSpaceOnUse">
<stop stop-color="#EAEAEA"/>
<stop offset="1" stop-color="#A5A5A5"/>
</linearGradient>
<linearGradient id="paint89_linear_11427_20836" x1="-0.0229765" y1="355.999" x2="650.992" y2="355.999" gradientUnits="userSpaceOnUse">
<stop stop-color="#EDEDED"/>
<stop offset="1" stop-color="#ACACAC"/>
</linearGradient>
<linearGradient id="paint90_linear_11427_20836" x1="-0.0229764" y1="374.1" x2="243.573" y2="374.1" gradientUnits="userSpaceOnUse">
<stop stop-color="#ECECEC"/>
<stop offset="1" stop-color="#9C9C9C"/>
</linearGradient>
<linearGradient id="paint91_linear_11427_20836" x1="364.73" y1="357.734" x2="579.192" y2="357.734" gradientUnits="userSpaceOnUse">
<stop stop-color="#F1F0EE"/>
<stop offset="1" stop-color="#AAAAAA"/>
</linearGradient>
<linearGradient id="paint92_linear_11427_20836" x1="1183.24" y1="325.335" x2="1739.39" y2="325.335" gradientUnits="userSpaceOnUse">
<stop stop-color="#E7E7E7"/>
<stop offset="1" stop-color="#989898"/>
</linearGradient>
<linearGradient id="paint93_linear_11427_20836" x1="1175" y1="330.591" x2="1739.39" y2="330.591" gradientUnits="userSpaceOnUse">
<stop stop-color="#F5F5F5"/>
<stop offset="1" stop-color="#A8A8A8"/>
</linearGradient>
<linearGradient id="paint94_linear_11427_20836" x1="1192.71" y1="343.607" x2="1741.71" y2="343.607" gradientUnits="userSpaceOnUse">
<stop stop-color="#F3F3F3"/>
<stop offset="1" stop-color="#9D9D9D"/>
</linearGradient>
<linearGradient id="paint95_linear_11427_20836" x1="1219.29" y1="356.756" x2="1752" y2="356.756" gradientUnits="userSpaceOnUse">
<stop stop-color="#EFEFEF"/>
<stop offset="1" stop-color="#ACACAC"/>
</linearGradient>
<linearGradient id="paint96_linear_11427_20836" x1="1276.67" y1="376.422" x2="1752.05" y2="376.422" gradientUnits="userSpaceOnUse">
<stop stop-color="#EAEAE8"/>
<stop offset="1" stop-color="#A7A7A7"/>
</linearGradient>
<linearGradient id="paint97_linear_11427_20836" x1="1350.35" y1="389.278" x2="1741.64" y2="389.278" gradientUnits="userSpaceOnUse">
<stop stop-color="#E5E5E5"/>
<stop offset="1" stop-color="#ABABAB"/>
</linearGradient>
<linearGradient id="paint98_linear_11427_20836" x1="1438.65" y1="405.206" x2="1741.67" y2="405.206" gradientUnits="userSpaceOnUse">
<stop stop-color="white"/>
<stop offset="1" stop-color="#A5A5A5"/>
</linearGradient>
<linearGradient id="paint99_linear_11427_20836" x1="1209.99" y1="351.136" x2="1737.32" y2="351.136" gradientUnits="userSpaceOnUse">
<stop stop-color="#E6E6E6"/>
<stop offset="1" stop-color="#949494"/>
</linearGradient>
<linearGradient id="paint100_linear_11427_20836" x1="1184.55" y1="339.929" x2="1737.35" y2="339.929" gradientUnits="userSpaceOnUse">
<stop stop-color="#EEEEEE"/>
<stop offset="1" stop-color="#A0A0A0"/>
</linearGradient>
<linearGradient id="paint101_linear_11427_20836" x1="1255.14" y1="367.856" x2="1741.64" y2="367.856" gradientUnits="userSpaceOnUse">
<stop stop-color="#F0F0F0"/>
<stop offset="1" stop-color="#A9A9A9"/>
</linearGradient>
<linearGradient id="paint102_linear_11427_20836" x1="1320.87" y1="383.365" x2="1739.41" y2="383.365" gradientUnits="userSpaceOnUse">
<stop stop-color="#F1F1F1"/>
<stop offset="1" stop-color="#9A9A9A"/>
</linearGradient>
<linearGradient id="paint103_linear_11427_20836" x1="1407.81" y1="398.824" x2="1739.41" y2="398.824" gradientUnits="userSpaceOnUse">
<stop stop-color="#EEEEEE"/>
<stop offset="1" stop-color="#ABABAB"/>
</linearGradient>
<linearGradient id="paint104_linear_11427_20836" x1="1498.39" y1="415.19" x2="1737.28" y2="415.19" gradientUnits="userSpaceOnUse">
<stop stop-color="#E8E8E8"/>
<stop offset="1" stop-color="#9E9E9E"/>
</linearGradient>
<linearGradient id="paint105_linear_11427_20836" x1="1209.9" y1="316.756" x2="1741.67" y2="316.756" gradientUnits="userSpaceOnUse">
<stop stop-color="#F1F1F1"/>
<stop offset="1" stop-color="#9D9D9D"/>
</linearGradient>
<linearGradient id="paint106_linear_11427_20836" x1="1241.28" y1="363.088" x2="1746.63" y2="363.088" gradientUnits="userSpaceOnUse">
<stop stop-color="#ECECEC"/>
<stop offset="1" stop-color="#A1A1A1"/>
</linearGradient>
<linearGradient id="paint107_linear_11427_20836" x1="-0.0229765" y1="295.709" x2="1746.6" y2="295.709" gradientUnits="userSpaceOnUse">
<stop stop-color="#EDEDED"/>
<stop offset="1" stop-color="#A5A5A5"/>
</linearGradient>
<linearGradient id="paint108_linear_11427_20836" x1="-0.0229765" y1="239.345" x2="1026.54" y2="239.345" gradientUnits="userSpaceOnUse">
<stop stop-color="#EDEDED"/>
<stop offset="1" stop-color="#989898"/>
</linearGradient>
<linearGradient id="paint109_linear_11427_20836" x1="-0.0229764" y1="197.971" x2="503.414" y2="197.971" gradientUnits="userSpaceOnUse">
<stop stop-color="#EFEFEF"/>
<stop offset="1" stop-color="#9F9F9F"/>
</linearGradient>
<linearGradient id="paint110_linear_11427_20836" x1="4.5517" y1="201.516" x2="471.043" y2="201.516" gradientUnits="userSpaceOnUse">
<stop stop-color="#E9E9E9"/>
<stop offset="1" stop-color="#A8A8A8"/>
</linearGradient>
<linearGradient id="paint111_linear_11427_20836" x1="4.5517" y1="204.767" x2="408.845" y2="204.767" gradientUnits="userSpaceOnUse">
<stop stop-color="#EEEEEE"/>
<stop offset="1" stop-color="#A3A3A3"/>
</linearGradient>
<linearGradient id="paint112_linear_11427_20836" x1="4.59766" y1="210.574" x2="382.951" y2="210.574" gradientUnits="userSpaceOnUse">
<stop stop-color="#E9E9E9"/>
<stop offset="1" stop-color="#9C9C9C"/>
</linearGradient>
<linearGradient id="paint113_linear_11427_20836" x1="-0.0229765" y1="216.38" x2="357.33" y2="216.38" gradientUnits="userSpaceOnUse">
<stop stop-color="#EEEEEE"/>
<stop offset="1" stop-color="#A7A7A7"/>
</linearGradient>
<linearGradient id="paint114_linear_11427_20836" x1="4.52873" y1="214.986" x2="270.711" y2="214.986" gradientUnits="userSpaceOnUse">
<stop stop-color="#E7E7E7"/>
<stop offset="1" stop-color="#CDCDCD"/>
</linearGradient>
<linearGradient id="paint115_linear_11427_20836" x1="4.50575" y1="219.287" x2="237.05" y2="219.287" gradientUnits="userSpaceOnUse">
<stop stop-color="#EAEAEA"/>
<stop offset="1" stop-color="#ABABAB"/>
</linearGradient>
<linearGradient id="paint116_linear_11427_20836" x1="4.50575" y1="216.955" x2="1741.62" y2="216.955" gradientUnits="userSpaceOnUse">
<stop stop-color="#EFEFEF"/>
<stop offset="1" stop-color="#9D9D9D"/>
</linearGradient>
<linearGradient id="paint117_linear_11427_20836" x1="3.74753" y1="340.284" x2="1741.92" y2="340.284" gradientUnits="userSpaceOnUse">
<stop stop-color="#ECECEC"/>
<stop offset="1" stop-color="#B1B1B1"/>
</linearGradient>
<linearGradient id="paint118_linear_11427_20836" x1="3.17312" y1="307.982" x2="1181.08" y2="307.982" gradientUnits="userSpaceOnUse">
<stop stop-color="#E6E6E6"/>
<stop offset="1" stop-color="#A8A8A8"/>
</linearGradient>
<linearGradient id="paint119_linear_11427_20836" x1="4.27599" y1="400.586" x2="1581.59" y2="400.586" gradientUnits="userSpaceOnUse">
<stop stop-color="#E3E3E3"/>
<stop offset="1" stop-color="#989898"/>
</linearGradient>
<linearGradient id="paint120_linear_11427_20836" x1="4.1611" y1="422.988" x2="1742.65" y2="422.988" gradientUnits="userSpaceOnUse">
<stop stop-color="#EEEEEE"/>
<stop offset="1" stop-color="#B3B3B3"/>
</linearGradient>
<linearGradient id="paint121_linear_11427_20836" x1="1174.3" y1="317.344" x2="1741.75" y2="317.344" gradientUnits="userSpaceOnUse">
<stop stop-color="#F0F0F0"/>
<stop offset="1" stop-color="#B4B4B4"/>
</linearGradient>
<linearGradient id="paint122_linear_11427_20836" x1="969.86" y1="369.872" x2="1742.1" y2="369.872" gradientUnits="userSpaceOnUse">
<stop stop-color="white"/>
<stop offset="1" stop-color="#A0A0A0"/>
</linearGradient>
<linearGradient id="paint123_linear_11427_20836" x1="1090.21" y1="245.861" x2="1392.49" y2="245.861" gradientUnits="userSpaceOnUse">
<stop stop-color="white"/>
<stop offset="1" stop-color="#A8A8A8"/>
</linearGradient>
</defs>
</svg>
