<svg width="16" height="16" viewBox="0 0 16 16" fill="none" xmlns="http://www.w3.org/2000/svg">
<path opacity="0.4" d="M13.9091 6.83114L12.1787 5.37275V3.30248C12.1787 3.25164 12.1688 3.20128 12.1494 3.15429C12.13 3.10729 12.1015 3.06459 12.0655 3.02861C12.0296 2.99264 11.9869 2.9641 11.94 2.94462C11.893 2.92515 11.8427 2.91513 11.7918 2.91513H10.5655C10.5147 2.91506 10.4643 2.92503 10.4172 2.94448C10.3702 2.96392 10.3275 2.99245 10.2915 3.02843C10.2555 3.06441 10.227 3.10714 10.2075 3.15417C10.1881 3.20119 10.1781 3.25159 10.1782 3.30248V3.68629L8.3375 2.13486C8.24556 2.04824 8.124 2 7.99768 2C7.87136 2 7.74981 2.04824 7.65786 2.13486L2.09131 6.83114C2.01766 6.8997 1.96635 6.98885 1.94408 7.08698C1.9218 7.18511 1.92958 7.28767 1.9664 7.38132C2.00348 7.47438 2.06765 7.55417 2.1506 7.61034C2.23355 7.66652 2.33145 7.69648 2.43163 7.69636H3.23668V13.5026C3.23668 13.7772 3.46171 14.0027 3.7373 14.0027H12.2631C12.3958 14.0025 12.523 13.9496 12.6168 13.8558C12.7106 13.762 12.7635 13.6348 12.7637 13.5021V7.69686H13.5688C13.6697 7.69701 13.7682 7.66647 13.8513 7.60929C13.9344 7.55212 13.9981 7.47102 14.034 7.37677C14.0705 7.28389 14.0781 7.18217 14.0558 7.0849C14.0335 6.98764 13.9824 6.89886 13.9091 6.83114ZM8.37796 12.1843C8.3275 12.253 8.26159 12.3088 8.18556 12.3473C8.10953 12.3858 8.0255 12.4058 7.94029 12.4058C7.85507 12.4058 7.77105 12.3858 7.69502 12.3473C7.61899 12.3088 7.55308 12.253 7.50262 12.1843C6.81236 11.2341 5.54209 9.3636 5.54209 8.40381C5.54316 7.76791 5.79655 7.15843 6.24663 6.70921C6.6967 6.25999 7.30666 6.00775 7.94256 6.00788C8.57846 6.00775 9.18842 6.25999 9.6385 6.70921C10.0886 7.15843 10.342 7.76791 10.343 8.40381C10.343 9.3636 9.07276 11.2341 8.37796 12.1843Z" fill="white"/>
<path d="M8.00052 9.75446C8.8384 9.75446 9.51764 9.07522 9.51764 8.23734C9.51764 7.39945 8.8384 6.72021 8.00052 6.72021C7.16264 6.72021 6.4834 7.39945 6.4834 8.23734C6.4834 9.07522 7.16264 9.75446 8.00052 9.75446Z" fill="white"/>
</svg>
