<svg width="25" height="25" viewBox="0 0 25 25" fill="none" xmlns="http://www.w3.org/2000/svg">
<path d="M22.6746 10.6016L19.8056 8.18367V4.75126C19.8057 4.66696 19.7892 4.58347 19.757 4.50556C19.7248 4.42764 19.6776 4.35684 19.618 4.29719C19.5584 4.23755 19.4877 4.19023 19.4098 4.15794C19.332 4.12566 19.2485 4.10904 19.1642 4.10904H17.1311C17.0467 4.10893 16.9631 4.12547 16.8852 4.1577C16.8072 4.18994 16.7364 4.23724 16.6767 4.2969C16.617 4.35655 16.5697 4.42739 16.5375 4.50536C16.5053 4.58333 16.4887 4.66689 16.4888 4.75126V5.3876L13.4371 2.81539C13.2846 2.67177 13.0831 2.5918 12.8737 2.5918C12.6642 2.5918 12.4627 2.67177 12.3103 2.81539L3.08113 10.6016C2.95902 10.7153 2.87396 10.8631 2.83702 11.0258C2.80009 11.1885 2.81299 11.3585 2.87404 11.5138C2.93551 11.6681 3.0419 11.8004 3.17942 11.8935C3.31695 11.9867 3.47928 12.0363 3.64537 12.0361H4.98011V21.6627C4.98011 22.1179 5.3532 22.4918 5.81013 22.4918H19.9456C20.1656 22.4914 20.3764 22.4038 20.532 22.2482C20.6876 22.0927 20.7752 21.8818 20.7756 21.6618V12.037H22.1103C22.2776 12.0372 22.4409 11.9866 22.5787 11.8918C22.7164 11.797 22.8221 11.6625 22.8817 11.5063C22.9422 11.3523 22.9547 11.1836 22.9178 11.0224C22.8808 10.8611 22.7961 10.7139 22.6746 10.6016ZM13.5041 19.4769C13.4205 19.5908 13.3112 19.6834 13.1852 19.7472C13.0591 19.811 12.9198 19.8442 12.7785 19.8442C12.6372 19.8442 12.4979 19.811 12.3719 19.7472C12.2458 19.6834 12.1365 19.5908 12.0529 19.4769C10.9084 17.9016 8.80238 14.8003 8.80238 13.2091C8.80416 12.1548 9.22428 11.1443 9.97049 10.3995C10.7167 9.65468 11.728 9.23648 12.7823 9.23671C13.8366 9.23648 14.8479 9.65468 15.5941 10.3995C16.3403 11.1443 16.7604 12.1548 16.7622 13.2091C16.7622 14.8003 14.6561 17.9016 13.5041 19.4769Z" fill="#E64827"/>
<path opacity="0.4" d="M12.8786 15.4486C14.2678 15.4486 15.3939 14.3225 15.3939 12.9333C15.3939 11.5441 14.2678 10.418 12.8786 10.418C11.4894 10.418 10.3633 11.5441 10.3633 12.9333C10.3633 14.3225 11.4894 15.4486 12.8786 15.4486Z" fill="#E64827"/>
</svg>
