<svg width="25" height="24" viewBox="0 0 25 24" fill="none" xmlns="http://www.w3.org/2000/svg">
<path opacity="0.4" d="M6.64744 15.9125C6.75687 15.4251 6.55791 14.7287 6.20973 14.3805L3.79237 11.9632C3.03632 11.2071 2.73788 10.4013 2.95674 9.70499C3.18554 9.00863 3.89185 8.53113 4.94634 8.35206L8.05011 7.83477C8.49777 7.75518 9.04491 7.35726 9.25381 6.9494L10.9649 3.51734C11.4623 2.53249 12.1387 1.98535 12.8749 1.98535C13.611 1.98535 14.2875 2.53249 14.7849 3.51734L16.4959 6.9494C16.6253 7.20804 16.8939 7.45674 17.1824 7.62586L6.46838 18.3398C6.32911 18.4791 6.09035 18.3498 6.13015 18.1508L6.64744 15.9125Z" fill="#E64827"/>
<path d="M19.5399 14.3824C19.1818 14.7405 18.9829 15.427 19.1022 15.9144L19.7886 18.9088C20.0771 20.1523 19.8981 21.0874 19.2813 21.535C19.0326 21.7141 18.7342 21.8036 18.386 21.8036C17.8786 21.8036 17.2817 21.6146 16.6252 21.2266L13.7104 19.4957C13.2528 19.2271 12.4968 19.2271 12.0392 19.4957L9.1244 21.2266C8.02017 21.8733 7.07511 21.9827 6.46828 21.535C6.23948 21.3659 6.07037 21.1371 5.96094 20.8387L18.0577 8.74191C18.5153 8.28431 19.1619 8.0754 19.7886 8.18483L20.7934 8.35394C21.8479 8.53301 22.5542 9.01051 22.783 9.70687C23.0018 10.4032 22.7034 11.209 21.9474 11.9651L19.5399 14.3824Z" fill="#E64827"/>
</svg>
