<svg width="28" height="28" viewBox="0 0 28 28" fill="none" xmlns="http://www.w3.org/2000/svg">
<g id="60e1c9b5300db429c4fda68a_nelson-travel-point-right-navy.svg">
<path id="Vector" fill-rule="evenodd" clip-rule="evenodd" d="M21.9258 14.4617C21.2924 14.5474 20.6594 14.6328 20.0284 14.7294C18.6644 14.9381 17.2907 15.0562 15.9241 15.1737L15.9223 15.1738C15.717 15.1915 15.5118 15.2091 15.3069 15.2271C13.7403 15.5379 12.1553 15.6529 10.5725 15.5703C8.94914 15.3884 7.35652 14.8732 5.851 14.0429V13.6483C7.35652 12.818 8.94914 12.3028 10.5725 12.1209C12.1553 12.0383 13.7403 12.1533 15.3069 12.4641C16.8765 12.6015 18.4461 12.7731 20.0284 12.9618C21.6109 13.1506 23.1805 13.3737 24.75 13.6483V14.0429C23.8114 14.2072 22.8682 14.3345 21.9258 14.4617ZM8.96387 2.30706C8.71459 2.88894 8.44067 3.44616 8.16768 4.00147C8.0462 4.2486 7.92486 4.49542 7.806 4.7438C7.42005 5.55032 6.98264 6.32253 6.51949 7.07757C6.35094 7.35234 6.21136 7.65439 6.07408 7.95145C5.83413 8.47068 5.60123 8.97469 5.23298 9.29123C4.53705 9.86438 3.73513 10.1674 2.91725 10.1664L2.75 9.92616C2.75809 8.83529 3.00884 7.77219 3.47045 6.87165C3.73105 6.28433 4.1674 5.94817 4.60412 5.61173C4.79264 5.4665 4.98123 5.3212 5.15578 5.15564C5.73472 4.60651 6.32651 4.07455 6.93117 3.55975C7.53583 3.04495 8.15336 2.5473 8.80949 2.08398L8.96387 2.30706ZM7.51032 24.9259C7.9007 25.2666 8.29011 25.6063 8.70647 25.9173L8.88659 25.6942C8.53922 24.8362 8.16612 24.0125 7.78017 23.206C7.39421 22.3995 6.98252 21.6101 6.57083 20.8379C6.44671 20.6051 6.33778 20.3535 6.2289 20.1021C5.97666 19.5195 5.72463 18.9375 5.28431 18.5899C4.61089 17.9695 3.81275 17.6345 2.99429 17.629L2.81418 17.8521C2.80118 18.9452 3.02934 20.0193 3.4703 20.9409C3.70761 21.4321 4.08548 21.7427 4.47475 22.0628C4.69747 22.2459 4.92392 22.4321 5.12992 22.6569C5.69599 23.2747 6.2492 23.8581 6.86673 24.3729C7.08456 24.5545 7.29758 24.7403 7.51032 24.9259Z" fill="#030922"/>
</g>
</svg>
